<svg width="25" height="24" viewBox="0 0 25 24" fill="none" xmlns="http://www.w3.org/2000/svg">
<path d="M15.2077 12.7199C15.3484 12.5793 15.4276 12.3887 15.4277 12.1899V11.8099C15.4254 11.6114 15.3466 11.4216 15.2077 11.2799L10.0677 6.14985C9.97385 6.0552 9.84605 6.00195 9.71273 6.00195C9.57942 6.00195 9.45162 6.0552 9.35773 6.14985L8.64773 6.85985C8.55367 6.95202 8.50066 7.07816 8.50066 7.20985C8.50066 7.34154 8.55367 7.46769 8.64773 7.55985L13.0977 11.9999L8.64773 16.4399C8.55308 16.5337 8.49984 16.6615 8.49984 16.7949C8.49984 16.9282 8.55308 17.056 8.64773 17.1499L9.35773 17.8499C9.45162 17.9445 9.57942 17.9978 9.71273 17.9978C9.84605 17.9978 9.97385 17.9445 10.0677 17.8499L15.2077 12.7199Z" fill="#FFCC01"/>
</svg>
