<svg width="25" height="24" viewBox="0 0 25 24" fill="none" xmlns="http://www.w3.org/2000/svg">
<path d="M8.72 12.7199C8.57931 12.5793 8.50018 12.3887 8.5 12.1899V11.8099C8.5023 11.6114 8.58112 11.4216 8.72 11.2799L13.86 6.14985C13.9539 6.0552 14.0817 6.00195 14.215 6.00195C14.3483 6.00195 14.4761 6.0552 14.57 6.14985L15.28 6.85985C15.3741 6.95202 15.4271 7.07816 15.4271 7.20985C15.4271 7.34154 15.3741 7.46769 15.28 7.55985L10.83 11.9999L15.28 16.4399C15.3747 16.5337 15.4279 16.6615 15.4279 16.7949C15.4279 16.9282 15.3747 17.056 15.28 17.1499L14.57 17.8499C14.4761 17.9445 14.3483 17.9978 14.215 17.9978C14.0817 17.9978 13.9539 17.9445 13.86 17.8499L8.72 12.7199Z" fill="white" fill-opacity="0.5"/>
</svg>
