<svg width="32" height="32" viewBox="0 0 32 32" fill="none" xmlns="http://www.w3.org/2000/svg">
<path d="M16 20L20 16M20 16L16 12M20 16H5.33337M12 9.66482V9.6003C12 8.10683 12 7.35953 12.2907 6.7891C12.5464 6.28734 12.954 5.87969 13.4558 5.62402C14.0262 5.33337 14.7735 5.33337 16.267 5.33337H22.4003C23.8938 5.33337 24.6395 5.33337 25.2099 5.62402C25.7117 5.87969 26.1207 6.28734 26.3763 6.7891C26.6667 7.35898 26.6667 8.10537 26.6667 9.59592V22.4048C26.6667 23.8954 26.6667 24.6407 26.3763 25.2106C26.1207 25.7123 25.7117 26.1207 25.2099 26.3763C24.64 26.6667 23.8947 26.6667 22.4042 26.6667H16.2626C14.772 26.6667 14.0256 26.6667 13.4558 26.3763C12.954 26.1207 12.5464 25.7119 12.2907 25.2102C12 24.6397 12 23.8935 12 22.4V22.3334" stroke="#FFCC01" stroke-width="2" stroke-linecap="round" stroke-linejoin="round"/>
</svg>
