<svg width="32" height="32" viewBox="0 0 32 32" fill="none" xmlns="http://www.w3.org/2000/svg">
<path d="M13.3349 6.66659H10.9349C9.44142 6.66659 8.69413 6.66659 8.1237 6.95723C7.62193 7.2129 7.21428 7.62055 6.95862 8.12231C6.66797 8.69275 6.66797 9.44004 6.66797 10.9335V21.0668C6.66797 22.5603 6.66797 23.3067 6.95862 23.8771C7.21428 24.3789 7.62193 24.7872 8.1237 25.0429C8.69357 25.3333 9.43996 25.3333 10.9305 25.3333H21.0721C22.5626 25.3333 23.308 25.3333 23.8778 25.0429C24.3796 24.7872 24.7886 24.3785 25.0443 23.8767C25.3346 23.3068 25.3346 22.5613 25.3346 21.0707V18.6666M26.668 11.9999V5.33325M26.668 5.33325H20.0013M26.668 5.33325L17.3346 14.6666" stroke="#5C5C5C" stroke-width="2" stroke-linecap="round" stroke-linejoin="round"/>
</svg>
