<svg width="33" height="32" viewBox="0 0 33 32" fill="none" xmlns="http://www.w3.org/2000/svg">
<path d="M21.8321 8.00004L10.6134 19.448C10.1132 19.9482 9.83219 20.6267 9.83219 21.334C9.83219 22.0414 10.1132 22.7198 10.6134 23.22C11.1136 23.7202 11.792 24.0012 12.4994 24.0012C13.2068 24.0012 13.8852 23.7202 14.3854 23.22L25.6041 11.772C26.6043 10.7718 27.1662 9.41523 27.1662 8.00071C27.1662 6.58618 26.6043 5.22959 25.6041 4.22937C24.6038 3.22915 23.2473 2.66724 21.8327 2.66724C20.4182 2.66724 19.0616 3.22915 18.0614 4.22937L6.8894 15.6307C6.1366 16.3713 5.53789 17.2537 5.1278 18.2269C4.71771 19.2001 4.50437 20.2448 4.50007 21.3009C4.49577 22.3569 4.7006 23.4034 5.10275 24.3799C5.50489 25.3563 6.0964 26.2436 6.84315 26.9903C7.58989 27.737 8.4771 28.3285 9.45359 28.7307C10.4301 29.1328 11.4765 29.3377 12.5326 29.3334C13.5886 29.3291 14.6334 29.1157 15.6066 28.7056C16.5797 28.2956 17.4621 27.6968 18.2027 26.944L29.3747 15.5427" stroke="#FFCC01" stroke-width="2" stroke-linecap="round" stroke-linejoin="round"/>
</svg>
