<svg width="32" height="32" viewBox="0 0 32 32" fill="none" xmlns="http://www.w3.org/2000/svg">
<path d="M16.0013 17.3334C16.7377 17.3334 17.3346 16.7364 17.3346 16C17.3346 15.2636 16.7377 14.6667 16.0013 14.6667C15.2649 14.6667 14.668 15.2636 14.668 16C14.668 16.7364 15.2649 17.3334 16.0013 17.3334Z" stroke="#FFCC01" stroke-width="2" stroke-linecap="round" stroke-linejoin="round"/>
<path d="M16.0013 7.99998C16.7377 7.99998 17.3346 7.40303 17.3346 6.66665C17.3346 5.93027 16.7377 5.33331 16.0013 5.33331C15.2649 5.33331 14.668 5.93027 14.668 6.66665C14.668 7.40303 15.2649 7.99998 16.0013 7.99998Z" stroke="#FFCC01" stroke-width="2" stroke-linecap="round" stroke-linejoin="round"/>
<path d="M16.0013 26.6667C16.7377 26.6667 17.3346 26.0697 17.3346 25.3333C17.3346 24.597 16.7377 24 16.0013 24C15.2649 24 14.668 24.597 14.668 25.3333C14.668 26.0697 15.2649 26.6667 16.0013 26.6667Z" stroke="#FFCC01" stroke-width="2" stroke-linecap="round" stroke-linejoin="round"/>
</svg>
