<svg width="32" height="32" viewBox="0 0 32 32" fill="none" xmlns="http://www.w3.org/2000/svg">
<path d="M24 26.6667C24 24.545 23.1571 22.5102 21.6569 21.0099C20.1566 19.5096 18.1217 18.6667 16 18.6667C13.8783 18.6667 11.8434 19.5096 10.3431 21.0099C8.84286 22.5102 8 24.545 8 26.6667" stroke="#363436" stroke-width="2" stroke-linecap="round" stroke-linejoin="round"/>
<path d="M16.0013 18.6667C18.9468 18.6667 21.3346 16.2789 21.3346 13.3333C21.3346 10.3878 18.9468 8 16.0013 8C13.0558 8 10.668 10.3878 10.668 13.3333C10.668 16.2789 13.0558 18.6667 16.0013 18.6667Z" stroke="#363436" stroke-width="2" stroke-linecap="round" stroke-linejoin="round"/>
<path d="M16.0013 29.3334C23.3651 29.3334 29.3346 23.3639 29.3346 16.0001C29.3346 8.63628 23.3651 2.66675 16.0013 2.66675C8.63751 2.66675 2.66797 8.63628 2.66797 16.0001C2.66797 23.3639 8.63751 29.3334 16.0013 29.3334Z" stroke="#363436" stroke-width="2" stroke-linecap="round" stroke-linejoin="round"/>
</svg>
