<svg width="100" height="100" viewBox="0 0 100 100" fill="none" xmlns="http://www.w3.org/2000/svg">
<path fill-rule="evenodd" clip-rule="evenodd" d="M30.4688 3.14453C32.2852 3.125 32.6367 3.18359 33.5547 3.61328C34.1016 3.88672 34.8633 4.35547 35.1953 4.66797C35.5469 4.98047 36.1914 5.44922 36.6211 5.74219C37.0703 6.03516 37.6758 6.25 38.0273 6.25C38.3789 6.25 38.8867 6.15234 39.1602 6.05469C39.4336 5.9375 40.0781 5.46875 40.625 4.98047C41.1523 4.49219 42.0703 3.88672 42.6367 3.61328C43.418 3.24219 43.9648 3.125 44.9609 3.125C45.8203 3.125 46.582 3.26172 47.1094 3.47656C47.5781 3.69141 48.4961 4.29687 49.1602 4.84375C49.8438 5.41016 50.6055 5.9375 50.8789 6.05469C51.1523 6.15234 51.6406 6.25 51.9531 6.25C52.2656 6.25 52.7344 6.15234 52.9688 6.01562C53.2227 5.89844 53.9258 5.37109 54.5313 4.84375C55.1563 4.33594 56.0742 3.73047 56.582 3.51562C57.207 3.24219 57.9492 3.125 58.7891 3.125C59.7266 3.125 60.3125 3.24219 61.0352 3.59375C61.5625 3.84766 62.5391 4.49219 63.1836 5.05859C63.8867 5.66406 64.6094 6.09375 65.625 6.25V9.375L64.6875 9.25781C64.1797 9.19922 63.457 8.98437 63.0859 8.78906C62.7148 8.59375 61.8555 7.98828 61.1719 7.44141C60.5078 6.89453 59.7266 6.38672 59.4141 6.32812C59.1211 6.25 58.5742 6.25 58.2031 6.32812C57.832 6.40625 57.3438 6.60156 57.1094 6.79687C56.875 6.97266 56.2305 7.5 55.6445 7.96875C55.0586 8.4375 54.1602 8.94531 53.6133 9.10156C53.0664 9.25781 52.2852 9.375 51.8555 9.375C51.4258 9.375 50.625 9.25781 50.0977 9.08203C49.4922 8.90625 48.5938 8.37891 47.7539 7.69531C47.0117 7.08984 46.1914 6.52344 45.9375 6.42578C45.7031 6.32812 45.2539 6.25 44.9219 6.25C44.5898 6.25 44.1406 6.34766 43.8867 6.46484C43.6523 6.60156 43.0078 7.07031 42.4805 7.51953C41.9336 7.96875 41.1133 8.53516 40.625 8.78906C40.1367 9.02344 39.2578 9.27734 38.6719 9.33594C38.0078 9.39453 37.1875 9.31641 36.5234 9.12109C35.9375 8.94531 35.0586 8.51562 34.5898 8.16406C34.1211 7.8125 33.3398 7.22656 32.832 6.875C32.0117 6.28906 31.8164 6.23047 30.5078 6.25C29.2578 6.25 29.0234 6.30859 28.6133 6.73828C28.2031 7.12891 28.125 7.42187 28.125 9.375H25V8.24219C25 7.63672 25.1172 6.77734 25.2539 6.36719C25.3711 5.9375 25.8398 5.21484 26.2695 4.74609C26.6992 4.29687 27.3633 3.75 27.7344 3.53516C28.2812 3.22266 28.8086 3.14453 30.4688 3.14453ZM41.8945 53.125H52.4414C60.7422 53.125 63.2617 53.1836 64.2578 53.3984C64.9609 53.5547 68.0859 54.6094 76.8555 57.8125H96.875V60.9375L75.8789 60.8398L70.4102 58.8281C67.4023 57.7148 64.4531 56.6797 63.8672 56.5234C63.2812 56.3672 62.2656 56.25 61.6211 56.25C60.9766 56.25 59.9219 56.3867 59.2773 56.543C58.6328 56.7187 57.5977 57.1289 56.9727 57.4805C56.3672 57.832 53.418 60.1367 50.4492 62.5977C47.4805 65.0586 44.8828 67.3633 44.6875 67.6758C44.4922 67.9883 44.3359 68.6133 44.3359 69.043C44.3359 69.4726 44.5117 70.0977 44.7266 70.4492C44.9414 70.8008 45.3125 71.2305 45.5469 71.3867C45.8008 71.543 46.3477 71.7383 46.7773 71.7969C47.2852 71.875 47.793 71.8164 48.2422 71.6211C48.6133 71.4453 50.6055 69.9219 56.3477 65.0781L57.4219 66.0937C58.0078 66.6406 58.9844 67.3437 59.5703 67.6367C60.1562 67.9297 61.25 68.2617 62.0117 68.3984C63.0664 68.5742 63.6719 68.5547 64.6484 68.3789C65.3516 68.2422 66.3477 67.9101 66.8945 67.6367C67.4219 67.3633 68.2031 66.875 68.5938 66.582C69.0039 66.2695 69.3555 66.0352 69.3945 66.0547C69.4336 66.0937 69.8633 66.6211 71.2891 68.3594L70.7422 68.8281C70.4492 69.082 69.6875 69.6094 69.043 70C68.3984 70.3906 67.3438 70.8789 66.6992 71.0742C66.0547 71.2695 64.9609 71.5039 62.9883 71.7188L70.9961 79.6875H73.9258C75.8984 79.6875 77.1094 79.6094 77.6367 79.4336C78.0664 79.2773 79.1211 78.6914 79.9805 78.125C80.8398 77.5391 81.8555 76.9531 82.2266 76.8164C82.7148 76.6406 84.8047 76.582 96.875 76.5625V79.6875H83.3008L81.543 80.8594C80.5859 81.4844 79.3945 82.1484 78.9062 82.3437C78.3594 82.5391 77.1484 82.7148 73.457 82.9101L73.5742 83.7891C73.6328 84.3359 73.5547 85.0976 73.3594 85.7812C73.125 86.6016 72.8125 87.1484 72.207 87.7539C71.6602 88.3203 71.0352 88.7109 70.3125 88.9648C69.5117 89.2187 68.9453 89.2773 68.1055 89.1797C67.0313 89.0625 66.9922 89.082 66.8945 89.5508C66.8359 89.8242 66.4258 90.4101 65.957 90.8789C65.4102 91.4453 64.7852 91.8359 64.0625 92.0898C63.2617 92.3437 62.6953 92.4023 61.8555 92.3047C60.7813 92.1875 60.7422 92.207 60.6445 92.6758C60.5859 92.9492 60.1758 93.5351 59.707 94.0039C59.1992 94.5312 58.5156 94.9805 57.9102 95.1758C57.3633 95.3711 56.6211 95.5078 56.25 95.5078C55.8789 95.5078 55.1758 95.3906 54.6875 95.2344C54.1992 95.0586 53.6719 94.8047 53.5156 94.6289C53.3594 94.4531 53.1445 94.3359 53.0273 94.3359C52.9102 94.3555 52.5586 94.7266 52.2461 95.1562C51.9336 95.6055 51.2109 96.2109 50.6836 96.5039C49.9219 96.9336 49.4336 97.0508 48.4766 97.0508C47.5391 97.0703 47.0703 96.9531 46.3281 96.5625C45.8203 96.2891 45.1758 95.8398 44.8633 95.5469C44.3555 95.0586 44.2969 95.0391 43.5938 95.2539C43.2031 95.3906 42.5586 95.5078 42.1875 95.5078C41.8164 95.5078 41.0742 95.3516 40.5273 95.1758C39.9609 94.9609 39.2188 94.4726 38.7305 93.9844C38.2617 93.5351 37.8516 92.9492 37.793 92.6758C37.6953 92.207 37.6562 92.1875 36.5625 92.3047C35.7422 92.4023 35.1758 92.3437 34.375 92.0898C33.6523 91.8359 33.0273 91.4453 32.4609 90.8789C31.875 90.293 31.543 89.707 30.957 87.7539L29.8242 87.4414C29.0039 87.1875 28.4766 86.875 27.832 86.2305C27.1875 85.5859 26.8555 85.0586 26.6016 84.1992C26.2695 83.0664 26.2695 83.0469 25.293 82.793C24.7461 82.6562 23.9453 82.2461 22.6562 81.25H3.125V78.125H21.582L21.7383 77.4023C21.8164 76.9922 22.0508 76.3086 22.2461 75.8789C22.4609 75.4492 23.6328 74.1211 24.8438 72.9297C26.6016 71.2109 27.2461 70.7031 28.0273 70.4492C28.5547 70.2539 29.3164 70.1172 29.6875 70.1172C30.0586 70.1172 30.8008 70.2539 31.3477 70.4492C31.9531 70.6445 32.6367 71.0938 33.1445 71.6211C33.6133 72.0898 34.0234 72.6758 34.082 72.9492C34.1797 73.418 34.2188 73.4375 35.293 73.3203C36.1328 73.2226 36.6992 73.2812 37.5 73.5351C38.2227 73.7891 38.8477 74.1797 39.3945 74.7461C40 75.332 40.332 75.918 40.918 77.8711L42.0312 78.1836C42.8711 78.4375 43.3984 78.75 44.043 79.3945C44.6875 80.0391 45.0195 80.5859 45.6055 82.5586L46.7188 82.8711C47.5586 83.125 48.0859 83.4375 48.7305 84.082C49.3555 84.707 49.707 85.293 49.9414 86.0547C50.2539 87.0117 50.5859 87.4219 52.9297 89.7461C55.2344 92.0508 55.6445 92.3828 56.2109 92.3828C56.6797 92.3828 57.0312 92.2266 57.4414 91.7969C57.832 91.3867 58.0078 91.0156 58.0078 90.5664C58.0078 90.0195 57.5781 89.5117 54.2969 86.2305C52.2656 84.1992 50.5859 82.4414 50.5859 82.3242C50.5859 82.207 51.0156 81.7188 51.5234 81.1914C52.0312 80.6836 52.5195 80.2734 52.6367 80.2734C52.7539 80.2734 54.8633 82.3047 57.3242 84.7656C61.3672 88.8086 61.875 89.2578 62.4609 89.2578C62.9297 89.2578 63.2812 89.1016 63.6914 88.6719C64.082 88.2617 64.2578 87.8906 64.2578 87.4414C64.2578 86.875 63.7109 86.2695 58.9844 81.543C56.0938 78.6328 53.7109 76.1914 53.7109 76.0742C53.7109 75.957 54.1406 75.4688 54.6484 74.9414C55.1562 74.4336 55.6445 74.0234 55.7617 74.0234C55.8789 74.0234 58.6719 76.7578 62.0117 80.0781C67.5195 85.5859 68.125 86.1328 68.7109 86.1328C69.1797 86.1328 69.5312 85.9766 69.9414 85.5469C70.332 85.1367 70.5078 84.7656 70.5078 84.3164C70.5078 83.75 69.8047 82.9883 56.1523 69.3164L53.3203 71.6601C51.7578 72.9687 50.0977 74.2188 49.6094 74.4531C49.082 74.707 48.2031 74.9023 47.4609 74.9609C46.5039 75.0195 45.9375 74.9414 45.1172 74.6289C44.5312 74.4141 43.6914 73.9258 43.2617 73.5742C42.832 73.2031 42.207 72.4414 41.8945 71.8555C41.3672 70.918 41.3086 70.625 41.3086 69.1406C41.3086 67.7539 41.3867 67.3047 41.8164 66.4062C42.2852 65.4297 42.8711 64.8828 53.0859 56.3477L42.4805 56.25L28.418 60.9375H3.125V57.8125H27.832L41.8945 53.125ZM24.8438 78.0859C24.8242 78.5547 24.9609 78.8476 25.3906 79.2969C25.8008 79.707 26.1719 79.8828 26.6016 79.8828C27.1289 79.8828 27.5391 79.5703 29.3359 77.7734C31.1328 75.9766 31.4453 75.5859 31.4453 75.0391C31.4453 74.5898 31.2695 74.2383 30.8594 73.8281C30.4492 73.418 30.0781 73.2422 29.6484 73.2422C29.1211 73.2422 28.7305 73.5351 26.9531 75.3516C25.2734 77.0508 24.8828 77.5781 24.8438 78.0859ZM29.5312 82.7734C29.5117 83.2422 29.6484 83.5351 30.0781 83.9844C30.4883 84.3945 30.8594 84.5703 31.2891 84.5703C31.8359 84.5703 32.2852 84.1992 34.8047 81.6797C37.3242 79.1602 37.6953 78.7305 37.6953 78.1641C37.6953 77.7148 37.5195 77.3633 37.1094 76.9531C36.6992 76.543 36.3281 76.3672 35.8984 76.3672C35.3516 76.3672 34.9219 76.7187 32.4219 79.2578C30.0586 81.6601 29.5703 82.2461 29.5312 82.7734ZM34.2188 87.4609C34.1992 87.9297 34.3359 88.2226 34.7656 88.6719C35.1758 89.082 35.5469 89.2578 35.9766 89.2578C36.5234 89.2578 36.9727 88.8867 39.4922 86.3672C42.0117 83.8477 42.3828 83.418 42.3828 82.8516C42.3828 82.4023 42.207 82.0508 41.7969 81.6406C41.3867 81.2305 41.0156 81.0547 40.5859 81.0547C40.0391 81.0547 39.6094 81.4062 37.1094 83.9453C34.7461 86.3476 34.2578 86.9336 34.2188 87.4609ZM40.4688 90.5859C40.4492 91.0547 40.5859 91.3476 41.0156 91.7969C41.4258 92.207 41.7969 92.3828 42.2266 92.3828C42.7539 92.3828 43.1641 92.0703 44.9609 90.2734C46.7578 88.4766 47.0703 88.0859 47.0703 87.5391C47.0703 87.0898 46.8945 86.7383 46.4844 86.3281C46.0742 85.918 45.7031 85.7422 45.2734 85.7422C44.7461 85.7422 44.3555 86.0351 42.5781 87.8516C40.8984 89.5508 40.5078 90.0781 40.4688 90.5859ZM46.7773 92.9883C47.6367 93.75 48.0859 93.9453 48.457 93.9453C48.8672 93.9453 49.2383 93.75 49.6289 93.3594C49.9609 93.0078 50.1953 92.5586 50.1953 92.2266C50.2148 91.9336 50.0391 91.4453 49.8047 91.1523C49.5898 90.8594 49.3359 90.625 49.2578 90.625C49.1797 90.625 48.5742 91.1523 47.9492 91.7969L46.7773 92.9883ZM21.875 12.5H31.25V21.875H43.75V13.0859L59.375 20.8984V13.0859L78.125 22.4609V46.875H81.25V50H18.75V46.875H21.875V12.5ZM25 18.75H28.125V15.625H25V18.75ZM46.875 46.875H59.375V24.4141L46.875 18.1641V46.875ZM62.5 46.875H75V24.4141L62.5 18.1641V46.875ZM25 46.875H28.125V21.875H25V46.875ZM31.25 46.875H43.75V25H31.25V46.875ZM50 25H56.25V28.125H50V25ZM65.625 25H71.875V28.125H65.625V25ZM34.375 28.125H40.625V31.25H34.375V28.125ZM50 32.8125H56.25V35.9375H50V32.8125ZM65.625 32.8125H71.875V35.9375H65.625V32.8125ZM34.375 34.375H40.625V37.5H34.375V34.375ZM34.375 40.625H40.625V43.75H34.375V40.625ZM50 40.625H56.25V43.75H50V40.625ZM65.625 40.625H71.875V43.75H65.625V40.625Z" fill="#FFCC01"/>
</svg>
