<svg width="246" height="64" viewBox="0 0 246 64" fill="none" xmlns="http://www.w3.org/2000/svg">
<path fill-rule="evenodd" clip-rule="evenodd" d="M71.4649 32.3863V35.5431H76.7915C76.6793 35.9409 76.0405 38.0339 72.898 38.0339C72.6304 38.0339 71.1369 38.0339 69.3066 37.3247V41.4241C70.5153 41.7355 72.1038 42.0382 73.7268 42.0382C80.3311 42.0382 82.9297 37.9128 82.9297 34.0555C82.9297 31.0371 81.4102 26.0728 73.5714 26.0728C72.6908 26.0728 71.4563 26.116 69.6347 26.4879L69.3066 26.5571V30.6393C70.7829 30.0252 72.2333 29.9301 72.7599 29.9301C75.7297 29.9301 76.5239 31.582 76.7915 32.3777H71.4649V32.3863Z" fill="white"/>
<path fill-rule="evenodd" clip-rule="evenodd" d="M90.3109 41.7787H85.1138V25.8998H90.3109V31.4782H95.2231V25.8998H100.42V41.7787H95.2231V35.8458H90.3109V41.7787ZM108.38 41.7787H103.183V25.8998H110.823C113.05 25.8998 114.743 26.3842 115.908 27.3528C117.03 28.2782 117.583 29.5842 117.583 31.2533C117.583 33.035 117.056 34.3842 116.02 35.3355C114.924 36.3301 113.249 36.8317 111.004 36.8317H108.389V41.7787H108.38ZM108.38 33.1387H110.538C111.194 33.1387 111.704 33.009 112.032 32.7409C112.429 32.4296 112.627 31.9452 112.627 31.2879C112.627 30.6479 112.299 30.1896 111.661 29.8955C111.194 29.6966 110.607 29.6101 109.856 29.6101H108.38V33.1387ZM126.976 25.4847C129.635 25.4847 131.732 26.3409 133.252 28.0447C134.616 29.5668 135.298 31.4868 135.298 33.7528C135.298 36.3733 134.504 38.449 132.898 39.9971C131.379 41.476 129.402 42.2025 126.976 42.2025C124.446 42.2025 122.443 41.476 120.967 39.9971C119.448 38.475 118.679 36.382 118.679 33.7096C118.679 31.2188 119.448 29.2296 120.967 27.7333C122.486 26.2371 124.489 25.4847 126.976 25.4847ZM126.932 29.3679C125.853 29.3679 125.059 29.8523 124.532 30.8036C124.092 31.5993 123.876 32.5939 123.876 33.7615C123.876 34.9982 124.075 36.0101 124.489 36.8058C125.016 37.8177 125.853 38.3279 126.976 38.3279C127.943 38.3279 128.711 37.9128 129.263 37.0479C129.816 36.209 130.101 35.1106 130.101 33.7615C130.101 32.5506 129.859 31.556 129.376 30.7604C128.806 29.8263 127.986 29.3679 126.932 29.3679ZM142.869 41.7787H137.672V25.8998H142.869V31.4782H147.781V25.8998H152.979V41.7787H147.781V35.8458H142.869V41.7787ZM168.665 41.7787H163.494V25.8998H176.417V29.6015H168.691L168.665 41.7787ZM184.161 41.7787H178.964V25.8998H186.604C188.823 25.8998 190.524 26.3842 191.689 27.3528C192.812 28.2782 193.364 29.5842 193.364 31.2533C193.364 33.035 192.838 34.3842 191.802 35.3355C190.705 36.3301 189.03 36.8317 186.786 36.8317H184.17V41.7787H184.161ZM184.161 33.1387H186.32C186.976 33.1387 187.485 33.009 187.813 32.7409C188.21 32.4296 188.409 31.9452 188.409 31.2879C188.409 30.6479 188.081 30.1896 187.442 29.8955C186.976 29.6966 186.389 29.6101 185.637 29.6101H184.161V33.1387ZM201.764 41.7787H196.17L199.563 36.0014L193.666 25.8998H199.476L202.204 31.2793L204.932 25.8998H210.57L201.764 41.7787ZM227.543 25.8998V41.7787H222.345V30.2933H217.433V41.7787H212.236V25.8998H227.543ZM245.871 25.8998V41.7787H240.673V30.2933H235.761V41.7787H230.564V25.8998H245.871Z" fill="white"/>
<g clip-path="url(#clip0_2011_7505)">
<path fill-rule="evenodd" clip-rule="evenodd" d="M22.3581 55.6136C25.4021 57.0664 28.8008 57.878 32.3865 57.878C45.1845 57.878 55.6008 47.5406 55.9816 34.641H59.5743C59.1935 49.5528 47.1665 61.5231 32.3865 61.5231C28.2852 61.5231 24.3969 60.5986 20.9082 58.949L22.3581 55.6136Z" fill="white"/>
<path fill-rule="evenodd" clip-rule="evenodd" d="M32.3632 6.77681C47.1843 6.77681 59.2382 18.7009 59.5743 33.5362H55.9809C55.6471 20.6973 45.2006 10.3933 32.3632 10.3933C28.8526 10.3933 26.5209 10.9175 22.5274 12.5471L20.9082 9.4904C24.3549 7.89894 28.32 6.77681 32.3632 6.77681Z" fill="#FFCC01"/>
<path fill-rule="evenodd" clip-rule="evenodd" d="M16.9052 44.6468C20.318 49.584 26.0163 52.8188 32.467 52.8188C42.6599 52.8188 50.9686 44.7472 51.365 34.641H55.1552C54.7563 46.844 44.752 56.6132 32.4646 56.6132C24.7219 56.6132 17.8868 52.7328 13.7886 46.8082L16.9052 44.6468Z" fill="white"/>
<path fill-rule="evenodd" clip-rule="evenodd" d="M32.5355 11.6868C44.832 11.6868 54.8362 21.4155 55.1552 33.5362H51.3777C51.0588 23.484 42.7469 15.4319 32.5355 15.4319C25.985 15.4319 20.2153 18.7472 16.8377 23.7769L13.7886 21.4108C17.8612 15.498 24.7687 11.6868 32.5355 11.6868Z" fill="#FFCC01"/>
<path fill-rule="evenodd" clip-rule="evenodd" d="M32.56 16.5968C42.326 16.5968 50.2454 24.4552 50.2454 34.1488C50.2454 43.8424 42.3284 51.7032 32.56 51.7032C23.0572 51.7032 15.306 44.2612 14.8936 34.9299L18.5511 34.9252C18.9564 42.2566 24.7923 47.9928 32.56 48.0775C40.3278 48.1622 46.4813 42.1813 46.5927 34.1488C46.7041 26.1163 38.8036 19.8366 32.56 20.2225C26.3188 20.6084 25.5698 21.5542 23.069 23.8529L20.49 21.3565C23.6853 18.2108 27.7031 16.5968 32.56 16.5968Z" fill="#FFCC01"/>
<path d="M32.6011 22.3948C33.2726 23.4767 33.9599 24.4723 34.6479 25.4085C38.4285 30.553 39.474 31.1495 39.8159 34.1536C39.9295 35.1525 39.5724 37.0876 38.3276 38.722C37.2772 40.1011 35.6197 41.2552 32.7632 41.2552C29.6446 41.2552 27.9741 40.0897 26.9741 38.8362C25.8002 37.3646 25.2647 35.3686 25.354 33.7474C25.5195 30.7448 26.4601 30.1944 30.3892 25.346C31.1302 24.4315 31.8726 23.4568 32.6011 22.3948Z" fill="white" stroke="white" stroke-width="14"/>
<path d="M32.7515 11.8999C34.2006 17.4801 36.4254 20.8132 38.5444 23.5131C41.2229 26.9258 43.4103 29.0194 43.9038 33.3432C44.1983 35.9253 43.4697 39.0279 41.6284 41.4702C39.8115 43.8798 36.8962 45.6703 32.7153 45.6704C28.4541 45.6704 25.5314 43.9942 23.6938 41.6674C21.9488 39.4578 21.1372 36.6013 21.1724 33.896L21.1909 33.3569C21.4481 28.7055 23.784 26.4107 26.646 23.0102C28.89 20.344 31.2817 17.1551 32.7515 11.8999Z" fill="url(#paint0_linear_2011_7505)" stroke="white" stroke-width="2"/>
</g>
<defs>
<linearGradient id="paint0_linear_2011_7505" x1="17.2579" y1="26.9971" x2="31.5159" y2="26.7507" gradientUnits="userSpaceOnUse">
<stop stop-color="#1A1A1A"/>
<stop offset="0.2214" stop-color="#121212"/>
<stop offset="0.5981" stop-color="#080808"/>
<stop offset="1"/>
</linearGradient>
<clipPath id="clip0_2011_7505">
<rect width="63.8298" height="63.8298" fill="white" transform="translate(0.0424805 0.170212)"/>
</clipPath>
</defs>
</svg>
