<svg width="7" height="12" viewBox="0 0 7 12" fill="none" xmlns="http://www.w3.org/2000/svg">
<path d="M6.70773 6.71985C6.84843 6.57934 6.92756 6.3887 6.92773 6.18985V5.80985C6.92543 5.61144 6.84662 5.42157 6.70773 5.27985L1.56773 0.149852C1.47385 0.055196 1.34605 0.00195312 1.21273 0.00195312C1.07942 0.00195312 0.951618 0.055196 0.857734 0.149852L0.147734 0.859852C0.0536699 0.952016 0.000662804 1.07816 0.000662804 1.20985C0.000662804 1.34154 0.0536699 1.46769 0.147734 1.55985L4.59773 5.99985L0.147734 10.4399C0.0530777 10.5337 -0.000164986 10.6615 -0.000164986 10.7949C-0.000164986 10.9282 0.0530777 11.056 0.147734 11.1499L0.857734 11.8499C0.951618 11.9445 1.07942 11.9978 1.21273 11.9978C1.34605 11.9978 1.47385 11.9445 1.56773 11.8499L6.70773 6.71985Z" fill="#FFCC01"/>
</svg>
