<svg width="32" height="32" viewBox="0 0 32 32" fill="none" xmlns="http://www.w3.org/2000/svg">
<path d="M16 26.6666H28" stroke="#B9B9B9" stroke-width="2" stroke-linecap="round" stroke-linejoin="round"/>
<path d="M21.8333 4.82935C22.3641 4.29856 23.084 4.00037 23.8347 4.00037C24.5853 4.00037 25.3052 4.29856 25.836 4.82935C26.3668 5.36013 26.665 6.08003 26.665 6.83068C26.665 7.58132 26.3668 8.30123 25.836 8.83201L9.82267 24.8467C9.50546 25.1639 9.11336 25.3959 8.68267 25.5213L4.85333 26.6387C4.7386 26.6721 4.61699 26.6741 4.50121 26.6445C4.38544 26.6148 4.27977 26.5546 4.19526 26.4701C4.11075 26.3856 4.05052 26.2799 4.02086 26.1641C3.9912 26.0484 3.9932 25.9267 4.02667 25.812L5.144 21.9827C5.26963 21.5525 5.50166 21.1608 5.81867 20.844L21.8333 4.82935Z" stroke="#B9B9B9" stroke-width="2" stroke-linecap="round" stroke-linejoin="round"/>
</svg>
