<svg width="32" height="32" viewBox="0 0 32 32" fill="none" xmlns="http://www.w3.org/2000/svg">
<path d="M24 26.6667C24 24.5449 23.1571 22.5101 21.6569 21.0098C20.1566 19.5095 18.1217 18.6667 16 18.6667C13.8783 18.6667 11.8434 19.5095 10.3431 21.0098C8.84286 22.5101 8 24.5449 8 26.6667" stroke="#FFCC01" stroke-width="2" stroke-linecap="round" stroke-linejoin="round"/>
<path d="M15.9998 18.6667C18.9454 18.6667 21.3332 16.2789 21.3332 13.3333C21.3332 10.3878 18.9454 8 15.9998 8C13.0543 8 10.6665 10.3878 10.6665 13.3333C10.6665 16.2789 13.0543 18.6667 15.9998 18.6667Z" stroke="#FFCC01" stroke-width="2" stroke-linecap="round" stroke-linejoin="round"/>
<path d="M15.9998 29.3333C23.3636 29.3333 29.3332 23.3638 29.3332 16C29.3332 8.6362 23.3636 2.66667 15.9998 2.66667C8.63604 2.66667 2.6665 8.6362 2.6665 16C2.6665 23.3638 8.63604 29.3333 15.9998 29.3333Z" stroke="#FFCC01" stroke-width="2" stroke-linecap="round" stroke-linejoin="round"/>
</svg>
