<svg width="100" height="100" viewBox="0 0 100 100" fill="none" xmlns="http://www.w3.org/2000/svg">
<path fill-rule="evenodd" clip-rule="evenodd" d="M47.3232 0.0194775C49.0615 -5.37597e-05 49.96 0.0976025 51.1123 0.410102C51.9522 0.624946 53.2412 1.11323 54.0029 1.46479C54.7647 1.83588 55.8584 2.51948 56.4443 2.98823C57.0303 3.43745 57.8506 4.2187 58.2412 4.70698C58.6318 5.17573 59.2764 6.0937 59.667 6.73823C60.0381 7.38276 60.585 8.5937 60.8389 9.43354C61.1123 10.2539 61.4248 11.7578 61.5225 12.7343C61.6787 14.0039 61.6787 15.0781 61.5225 16.3085C61.4053 17.2851 61.1904 18.5156 60.7998 20.0195L62.3818 20.371C63.2412 20.5859 64.7647 20.996 65.7217 21.3085C66.6787 21.621 67.5576 21.8749 67.6748 21.8749C67.792 21.8749 67.9873 21.4062 68.124 20.8593C68.2607 20.2929 68.6709 19.1992 69.042 18.457C69.4131 17.7148 70.1162 16.582 70.6045 15.957C71.0928 15.3515 71.9912 14.4531 72.5967 13.9648C73.2217 13.4765 74.335 12.7734 75.0967 12.4023C75.8584 12.0312 76.9912 11.582 77.6357 11.4062C78.2803 11.2499 79.7647 11.0546 80.9561 10.996C82.46 10.9179 83.5732 10.9765 84.667 11.1914C85.5264 11.3476 86.7568 11.6796 87.4014 11.9335C88.0459 12.1874 89.1787 12.7929 89.9404 13.3007C90.7022 13.789 91.7373 14.6874 92.2842 15.2929C92.8115 15.8984 93.5537 16.8359 93.9053 17.4218C94.2373 17.9882 94.8232 19.2382 95.1748 20.2148C95.7998 21.9531 95.7998 22.0117 95.7803 25.3906C95.7803 28.5546 95.7412 28.9257 95.2334 30.5664C94.9404 31.5234 94.335 33.0273 93.9053 33.8867C93.4756 34.746 92.5772 36.289 91.874 37.3046C91.1904 38.3203 90.3701 39.5117 89.4326 40.7226L90.1943 42.3828C90.624 43.3007 91.2686 44.8828 91.6592 45.8984C92.0303 46.914 92.5772 48.6328 92.8506 49.707C93.124 50.7812 93.4951 52.539 93.6709 53.6132C93.9248 55.0585 94.0225 56.6601 94.0225 59.7656C94.0225 62.871 93.9248 64.4726 93.6709 65.9179C93.4951 66.9921 93.124 68.7499 92.8506 69.8242C92.5772 70.8984 92.0498 72.6171 91.6592 73.6328C91.2881 74.6484 90.4873 76.4843 89.8623 77.7148C89.2568 78.9453 88.5928 80.0585 88.3779 80.2148C88.1631 80.3515 87.8115 80.4687 87.5967 80.4687C87.3818 80.4882 86.9717 80.3124 86.6592 80.0781C86.3662 79.8632 86.1318 79.4921 86.1318 79.2578C86.1318 79.0039 86.6787 77.6171 87.3818 76.1718C88.0654 74.7265 88.9443 72.5781 89.3154 71.3867C89.7061 70.1953 90.1943 68.3203 90.4287 67.1874C90.6436 66.0546 90.7803 64.9609 90.7021 64.746C90.624 64.5312 90.2139 63.789 89.7647 63.1054C89.3154 62.4023 88.4756 61.4257 87.8897 60.8984C87.3037 60.371 86.249 59.6484 85.5459 59.2773C84.8428 58.9062 83.5732 58.4374 82.7139 58.2031C81.8545 57.9882 80.6045 57.8124 79.9209 57.8124C79.2568 57.8124 78.2412 57.9101 77.6748 58.0273C77.1279 58.1445 75.9951 58.5546 75.1943 58.9453C73.9834 59.5117 73.3584 59.9999 71.5811 61.8164C70.3896 63.0078 68.9053 64.3749 68.2607 64.8632C67.6162 65.3515 66.6982 65.9765 66.21 66.2695C65.7217 66.5429 64.7842 66.9531 64.1006 67.1679C63.4365 67.4023 62.3818 67.5781 61.7568 67.5781C61.1514 67.5781 60.3311 67.4804 59.96 67.3632C59.5889 67.2265 59.0029 66.9335 58.6514 66.7187C58.3193 66.4843 57.7725 65.957 57.4404 65.5273C57.1084 65.0976 56.6592 64.1796 56.4443 63.4765C56.1123 62.4218 56.0537 61.6796 56.0537 58.9843C56.0537 55.8007 56.0342 55.7421 55.4873 54.7851C55.1943 54.2578 54.5889 53.5546 54.1787 53.2226C53.749 52.9101 52.8506 52.3632 52.1475 52.0312C51.4443 51.6796 49.96 51.1328 48.8272 50.8007C47.6943 50.4687 46.4248 50.039 45.9951 49.8632C45.5654 49.6874 44.7061 49.1992 44.0811 48.789C43.4756 48.3789 42.5967 47.5781 42.1475 47.0312C41.7178 46.4648 41.0928 45.4687 40.7803 44.8242C40.4873 44.1796 40.0967 42.9101 39.9209 41.9921C39.7256 40.8789 39.667 39.8828 39.7451 38.9648C39.8232 38.2226 39.999 37.1093 40.1553 36.5234C40.3115 35.9374 40.7412 34.8046 41.1123 34.0429C41.6982 32.832 41.7568 32.5585 41.542 32.246C41.4248 32.0507 40.3897 30.664 39.2568 29.1601C38.1436 27.6757 37.2061 26.4453 37.2061 26.4062C37.2061 26.3867 36.542 26.7187 35.7412 27.1679C34.9404 27.6171 33.749 28.3398 33.1045 28.7695C32.46 29.1992 31.4834 29.9218 30.9561 30.3515C30.4092 30.7812 29.4131 31.621 28.7295 32.2265C28.0654 32.8124 26.8936 34.0039 26.1514 34.8632C25.4092 35.7226 24.8037 36.4843 24.8037 36.582C24.8037 36.6601 24.9209 36.7187 25.0381 36.7187C25.1748 36.7187 25.8193 37.0703 26.4639 37.5195C27.1084 37.9492 27.8897 38.5937 28.1826 38.9257C28.4756 39.2773 28.9443 39.9999 29.2373 40.5273C29.5107 41.0742 29.8428 42.0703 29.9795 42.7734C30.1162 43.4765 30.292 45.0585 30.3701 46.289C30.4287 47.5195 30.5654 48.9257 30.6826 49.414C30.7803 49.9023 31.1123 50.664 31.4443 51.1328C31.7568 51.582 32.4404 52.2265 32.9482 52.539C33.4756 52.871 34.5889 53.3593 35.4482 53.6523C36.3076 53.9257 37.4404 54.3749 37.9873 54.6484C38.5147 54.9218 39.3936 55.5468 39.9404 56.0546C40.5459 56.621 41.1318 57.4609 41.5029 58.2226C42.0498 59.414 42.0889 59.6093 42.0889 61.914C42.0889 63.9648 41.9912 64.6484 41.5615 66.2109C41.2686 67.2265 40.6826 68.9843 39.5107 72.1679L40.0772 73.3984C40.3701 74.0624 40.8193 75.2929 41.0537 76.1328C41.4443 77.4218 41.5029 78.0859 41.5029 80.957C41.5029 83.8476 41.4443 84.4726 41.0537 85.8398C40.7998 86.6992 40.2725 88.1054 39.8623 88.9648C39.4522 89.8242 38.71 91.1132 37.3037 93.164L38.6123 93.7695C39.3545 94.121 40.7803 94.6679 41.7959 95.0195C42.8115 95.371 44.667 95.8789 45.8975 96.1523C47.1279 96.4257 49.0029 96.7578 50.0381 96.8554C51.0928 96.9726 52.8115 97.0703 53.8467 97.0703C54.9014 97.0703 56.8545 96.9335 58.2022 96.7773C59.5498 96.621 61.6592 96.2499 62.8897 95.9374C64.1201 95.6249 66.0147 95.039 67.0889 94.6289C68.1631 94.2382 69.96 93.4179 71.0928 92.832C72.2256 92.2265 73.8076 91.3085 74.6084 90.7617C75.4092 90.2148 76.5029 89.4335 77.0498 89.0039C77.5772 88.5546 79.1201 87.1289 80.4678 85.8007C82.1084 84.1992 83.0459 83.3984 83.3389 83.3984C83.5928 83.3984 83.9248 83.457 84.1006 83.5546C84.2764 83.6328 84.5498 83.9257 84.6865 84.2382C84.8428 84.5312 84.9014 84.9609 84.8428 85.2148C84.7646 85.4492 84.1787 86.2499 83.5147 86.9921C82.8506 87.7343 81.3467 89.1796 80.1748 90.1757C78.9834 91.1914 77.2256 92.539 76.2686 93.1835C75.292 93.8281 73.4561 94.8828 72.167 95.5468C70.8779 96.2109 69.0811 97.0312 68.1631 97.3828C67.2451 97.7343 65.4873 98.2812 64.2568 98.6132C63.0264 98.9453 60.9365 99.3749 59.6084 99.6093C57.8701 99.9023 56.3272 99.9999 53.9053 99.9999C51.4639 99.9999 49.96 99.9023 48.1826 99.5898C46.874 99.3749 44.9209 98.9648 43.8467 98.7109C42.7725 98.4374 41.0537 97.8906 40.0381 97.5195C39.0225 97.1289 37.4795 96.5039 35.0576 95.3515L34.0811 96.0937C33.5342 96.5039 32.5381 97.1289 31.835 97.5195C31.1318 97.9101 29.7647 98.4765 28.8076 98.8085C27.8311 99.121 26.4248 99.4921 25.6826 99.6093C24.9209 99.7265 23.6514 99.8437 22.8506 99.8437C22.0498 99.8437 20.7998 99.746 20.0576 99.6289C19.335 99.5117 18.0264 99.1796 17.1279 98.9062C16.249 98.6132 15.0771 98.164 14.5498 97.9101C14.0029 97.6367 13.0068 97.0312 12.3037 96.582C11.6006 96.1132 10.4678 95.1757 9.78418 94.4921C9.10059 93.8085 8.14356 92.7343 7.65527 92.0898C7.18652 91.4453 6.46387 90.2539 6.05371 89.4531C5.66309 88.6523 5.13574 87.4218 4.9209 86.7187C4.68652 86.0156 4.41309 84.9218 4.27637 84.2773C4.13965 83.5546 4.10059 82.0312 4.15918 80.2734C4.2373 78.164 4.37402 77.0703 4.68652 75.9765C4.9209 75.1757 5.38965 73.9062 5.74121 73.1445C6.07324 72.3828 6.83496 71.0937 7.4209 70.2343C8.00684 69.3945 9.13965 68.0859 9.90137 67.3632C10.6826 66.621 11.874 65.664 13.7686 64.4335L13.7881 59.8046C13.8076 57.1875 13.9053 54.6289 14.042 53.9062C14.1982 52.9882 14.3936 52.5195 14.7451 52.207C15.0186 51.9531 15.3701 51.7578 15.5264 51.7578C15.6826 51.7578 16.0342 51.8749 16.3076 52.0117C16.5811 52.1289 16.874 52.4218 16.9717 52.6367C17.0693 52.871 17.0498 53.8085 16.874 55.0781C16.7373 56.2109 16.6006 58.3593 16.6006 59.8632C16.6006 61.3671 16.6787 62.6953 16.7568 62.832C16.8545 62.9882 17.3037 62.9492 18.4561 62.6562C19.6279 62.3632 20.6826 62.246 22.7529 62.246C24.9795 62.2265 25.8193 62.3046 27.2451 62.6757C28.2022 62.9101 29.7061 63.4374 30.5654 63.8476C31.4248 64.2382 32.6553 64.9218 33.2998 65.332C33.9443 65.7617 35.1553 66.7773 35.9951 67.5781C36.8154 68.3789 37.5381 69.0039 37.5772 68.9453C37.6162 68.8867 37.8701 68.1445 38.1436 67.2851C38.4365 66.4257 38.7881 65.1562 38.9639 64.4531C39.1201 63.7499 39.2568 62.6171 39.2568 61.914C39.2568 61.2109 39.1592 60.332 39.042 59.9609C38.9053 59.5898 38.6123 58.9843 38.3584 58.6523C38.1045 58.3007 37.5576 57.7929 37.1475 57.539C36.7568 57.2851 35.585 56.7968 34.5693 56.4453C33.5537 56.1132 32.2256 55.5273 31.6397 55.1757C31.0537 54.8046 30.1943 54.1406 29.7647 53.6718C29.3154 53.2031 28.7881 52.5195 28.6123 52.1484C28.417 51.7773 28.1436 51.1132 27.9873 50.6835C27.8311 50.2539 27.5772 48.3593 27.4404 46.4843C27.2842 44.2968 27.0693 42.7929 26.874 42.2851C26.6787 41.8554 26.21 41.1523 25.7803 40.7226C25.3701 40.2929 24.5693 39.7265 23.0068 38.9648L22.5381 39.5507C22.2842 39.8828 21.4639 41.3281 20.7412 42.7734C19.999 44.2187 19.2764 45.7226 19.1396 46.0937C19.0029 46.4648 18.6904 46.9726 18.4756 47.2265C18.2412 47.4609 17.8506 47.6562 17.5771 47.6562C17.3037 47.6562 16.9131 47.539 16.6982 47.4023C16.4834 47.246 16.249 46.8945 16.1514 46.621C16.0537 46.2304 16.1709 45.6835 16.6201 44.5898C16.9521 43.7499 17.499 42.539 17.8115 41.8945C18.1436 41.2499 18.8467 39.9804 19.3936 39.0624C19.96 38.1445 21.0537 36.5234 21.8545 35.4492C22.6553 34.3749 24.2373 32.5585 25.3701 31.4257C26.5029 30.2929 28.0459 28.8671 28.8076 28.2812C29.5498 27.6953 30.9756 26.6796 31.9326 26.0546C32.9092 25.4296 34.1201 24.6874 34.6279 24.414C35.2529 24.0885 35.5329 23.8281 35.4678 23.6328C35.4287 23.4765 35.0576 22.5976 34.6475 21.6796C34.2568 20.7617 33.749 19.1796 33.5537 18.164C33.2412 16.6796 33.1826 15.8007 33.2607 13.7695C33.3193 11.8749 33.4561 10.8789 33.7881 9.86323C34.0225 9.12104 34.4717 8.00776 34.7647 7.42182C35.0576 6.83588 35.7022 5.82026 36.1904 5.17573C36.6592 4.5312 37.5772 3.5937 38.2022 3.10541C38.8467 2.5976 39.8818 1.93354 40.5264 1.60151C41.1709 1.28901 42.2256 0.859321 42.8701 0.68354C43.5147 0.488227 44.2568 0.273384 44.5303 0.175727C44.8037 0.0976025 46.0537 0.0194775 47.3037 0.0194775H47.3232ZM42.0107 4.14057C41.1709 4.5312 40.2725 5.23432 39.3545 6.13276C38.417 7.07026 37.7725 7.92963 37.3623 8.78901C37.0303 9.49213 36.6201 10.6835 36.4443 11.4257C36.1904 12.4609 36.1318 13.3789 36.21 15.1367C36.2686 17.1093 36.3857 17.7734 36.9131 19.3359C37.2647 20.3515 37.9482 21.9335 38.4561 22.832C38.9639 23.7304 40.3115 25.7031 41.4443 27.2265C42.5772 28.7304 44.2178 30.7617 45.0576 31.7187C45.8975 32.6757 46.7373 33.5546 46.8936 33.6523C47.0498 33.7499 47.4014 33.789 47.6748 33.7304C47.9678 33.6523 48.7881 32.8906 49.7256 31.7968C50.585 30.8007 52.2842 28.6718 53.4951 27.0507C54.9209 25.1562 56.0732 23.3593 56.7764 21.9726C57.3623 20.8007 58.0264 19.121 58.2412 18.2617C58.5342 17.1679 58.6514 16.0546 58.6514 14.5507C58.6709 13.1054 58.5537 11.9921 58.3389 11.1328C58.1436 10.4296 57.6748 9.25776 57.2842 8.49604C56.874 7.75385 56.0732 6.64057 55.4873 6.05463C54.8037 5.37104 53.8662 4.68745 52.9482 4.23823C52.1475 3.82807 50.8584 3.37885 50.1162 3.2226C49.3545 3.06635 48.085 2.94917 47.2842 2.94917C46.4834 2.94917 45.2529 3.08588 44.5498 3.24213C43.8467 3.37885 42.7139 3.78901 42.0107 4.14057ZM77.3623 14.6289C76.7764 14.8437 75.7607 15.371 75.1162 15.7812C74.4717 16.2109 73.5537 17.0312 73.085 17.5976C72.6162 18.1835 71.9912 19.1796 71.6787 19.8242C71.3662 20.4687 70.9951 21.5234 70.8193 22.1679C70.6436 22.871 70.5264 24.1796 70.5264 25.3906C70.5264 26.7773 70.6631 27.9687 70.9365 29.1015C71.1514 30.0195 71.6397 31.4257 72.0107 32.2265C72.3818 33.0273 73.2607 34.5312 73.9443 35.5468C74.6279 36.5624 75.9365 38.3593 76.874 39.5507C77.792 40.7421 79.1592 42.3828 79.9014 43.2226C80.8389 44.2382 81.4053 44.7265 81.6982 44.7265C81.9717 44.7265 82.499 44.3749 83.0459 43.8085C83.5342 43.2812 84.4131 42.3046 85.0186 41.6015C85.6045 40.8984 86.7568 39.4531 87.5576 38.3789C88.3584 37.3046 89.4522 35.7617 89.96 34.9609C90.4873 34.1601 91.1904 32.8906 91.542 32.1289C91.8936 31.3867 92.3623 30.0195 92.5772 29.1015C92.8506 27.9882 92.9873 26.7968 92.9873 25.4492C92.9873 24.3359 92.8897 22.9687 92.7725 22.4218C92.6553 21.8554 92.2256 20.664 91.7959 19.7851C91.2881 18.7109 90.6826 17.8124 89.999 17.1289C89.4521 16.5624 88.5342 15.8398 88.0068 15.5273C87.46 15.2148 86.4639 14.746 85.7607 14.4921C84.7647 14.121 84.0029 14.0039 82.2451 13.9453C81.0147 13.9062 79.6475 13.9648 79.2178 14.0624C78.7881 14.1406 77.9482 14.3945 77.3623 14.6289ZM58.8076 24.4335C58.3193 25.3124 56.9522 27.3242 55.7803 28.8867C54.5889 30.4687 52.8311 32.6562 51.874 33.7695C50.8975 34.8828 49.7647 35.996 49.335 36.25C48.7881 36.582 48.2412 36.7187 47.5186 36.7187C46.9717 36.7187 46.2686 36.621 45.9561 36.5039C45.6631 36.3867 45.0772 35.996 44.6475 35.6445L43.8662 34.9804C43.1826 36.6992 42.8897 37.7734 42.7725 38.4765C42.6553 39.1796 42.6357 40.2343 42.6943 40.8203C42.7725 41.4062 43.0068 42.3828 43.2412 42.9687C43.4561 43.5546 43.9053 44.4335 44.2373 44.8828C44.5693 45.3515 45.3311 46.0546 45.917 46.4648C46.6397 46.9531 47.7334 47.3828 49.2373 47.832C50.4678 48.1835 52.3623 48.8867 53.4365 49.414C54.7256 50.0195 55.7803 50.7031 56.5225 51.3867C57.3037 52.0898 57.8701 52.8515 58.2803 53.7109C58.9053 54.9609 58.9053 54.9999 59.0029 58.789C59.0811 61.8749 59.1787 62.7148 59.4521 63.2421C59.6279 63.5742 60.0186 64.0429 60.3115 64.2578C60.6826 64.5312 61.1514 64.6679 61.7373 64.6484C62.2256 64.6484 63.1045 64.4335 63.6904 64.1992C64.2764 63.9648 65.3311 63.3593 66.0342 62.871C66.7373 62.3828 68.1826 61.0742 69.2568 59.9804C70.3311 58.8867 71.8154 57.5781 72.5772 57.0703C73.3193 56.582 74.6865 55.8984 75.6045 55.5859C77.1084 55.039 77.499 54.9999 79.8037 54.9804C81.7373 54.9804 82.6553 55.0781 83.6123 55.3515C84.3154 55.5664 85.4092 55.957 86.0537 56.2499C86.6982 56.5234 87.6553 57.0507 88.2022 57.4218C88.7295 57.7929 89.6475 58.5351 90.2139 59.082L91.249 60.0585C91.2295 58.2421 91.1318 56.914 91.0342 55.957C90.917 54.9999 90.6436 53.2812 90.4287 52.1484C90.1943 51.0156 89.7061 49.1796 89.335 48.0468C88.9639 46.914 88.3779 45.3906 88.0459 44.6484L87.4209 43.2812C85.2334 45.8398 84.2764 46.7968 83.8662 47.0703C83.2607 47.4804 82.9287 47.5585 81.7568 47.5585C80.5264 47.5585 80.2529 47.4804 79.5889 47.0117C79.1592 46.7187 78.1631 45.7031 77.3428 44.7656C76.542 43.8281 75.0381 41.9726 74.0029 40.6249C72.9873 39.2773 71.7178 37.5195 71.1904 36.7187C70.6826 35.9179 69.8818 34.4531 69.4326 33.496C68.9639 32.539 68.417 31.0742 68.1826 30.2734C67.9482 29.4726 67.7139 27.9492 67.6357 26.8945L67.499 24.9804C65.8389 24.3749 64.374 23.9453 63.2022 23.6328C62.0107 23.3398 60.7412 23.0468 60.3701 22.9687L59.6865 22.8515L58.8076 24.4335ZM17.8896 65.8984C17.0303 66.1718 15.6631 66.7773 14.8623 67.246C14.0615 67.7343 12.792 68.6718 12.0498 69.3554C11.3076 70.039 10.2529 71.3085 9.68652 72.1679C9.12012 73.0273 8.43652 74.2578 8.16309 74.9023C7.88965 75.5468 7.53809 76.7382 7.36231 77.539C7.16699 78.3593 7.03027 79.8437 7.03027 80.957C7.03027 82.0312 7.14746 83.5156 7.30371 84.2773C7.45996 85.0195 7.85059 86.2499 8.14356 87.0117C8.45606 87.7539 9.12012 88.9843 9.6084 89.746C10.1162 90.4882 11.249 91.7968 12.1475 92.6367C13.417 93.8281 14.2178 94.3945 15.7412 95.1367C16.8154 95.664 18.2607 96.2499 18.9639 96.4257C19.8623 96.6601 20.9951 96.7578 22.8701 96.7773C25.0186 96.7773 25.7803 96.6796 27.0107 96.3281C27.8506 96.0937 29.0811 95.6249 29.7451 95.2929C30.4287 94.9414 31.5029 94.2968 32.1475 93.8476C32.792 93.3789 33.8076 92.4999 34.4131 91.8554C35.0186 91.2304 35.8193 90.2343 36.1904 89.6484C36.5811 89.0624 37.1279 88.0468 37.4014 87.4023C37.6943 86.7578 38.1045 85.5273 38.2998 84.6679C38.5537 83.6132 38.6904 82.4023 38.6904 80.957C38.6904 79.4335 38.5732 78.3593 38.2998 77.246C38.085 76.3867 37.5967 75.0195 37.2061 74.2187C36.8154 73.4179 36.1318 72.2265 35.6826 71.582C35.2139 70.9374 34.3545 69.9609 33.7686 69.4335C33.2022 68.8867 32.1865 68.1054 31.542 67.6757C30.917 67.2656 29.9209 66.7187 29.3545 66.4648C28.8076 66.2109 27.6943 65.8398 26.9131 65.6249C26.1318 65.3906 24.6475 65.1953 23.5537 65.1367C22.4795 65.0976 21.1123 65.1367 20.5264 65.2343C19.9404 65.332 18.749 65.6249 17.8896 65.8984ZM76.2881 68.3593C76.6006 68.3593 77.3037 68.4765 77.8506 68.6328C78.4561 68.8085 79.1201 69.1992 79.5889 69.6679C80.0186 70.0781 80.5264 70.7617 80.7022 71.1914C80.9365 71.6992 81.0732 72.4414 81.0732 73.3398C81.0732 74.082 80.9365 75.2343 80.7803 75.8789C80.6045 76.5234 80.2139 77.5781 79.9014 78.2226C79.5889 78.8671 79.0029 79.7851 78.5928 80.2734C78.2021 80.7617 77.4209 81.5234 76.8936 81.9921C76.3467 82.4414 75.1943 83.164 74.335 83.5937C73.4756 84.0039 72.0303 84.5312 71.1123 84.7656C70.1943 84.9999 68.6514 85.2343 67.6943 85.2929C66.4443 85.3515 65.5459 85.2929 64.6084 85.0781C63.8857 84.9023 62.8896 84.5507 62.3623 84.2968C61.8545 84.0429 61.0146 83.3593 60.5068 82.7929C59.999 82.207 59.4326 81.3476 59.2764 80.8593C59.1201 80.371 59.0029 79.4531 59.0029 78.8085C59.0029 77.9296 59.1396 77.3437 59.5498 76.4648C59.9014 75.7031 60.4482 74.9999 61.0732 74.4531C61.7373 73.8867 62.3232 73.5546 62.9482 73.4374C63.6904 73.2812 64.2959 73.3203 65.8389 73.6328C67.5967 73.9843 67.8506 73.9843 68.417 73.7304C68.7686 73.5742 69.8037 72.6367 70.7217 71.6601C71.6397 70.664 72.7725 69.6484 73.2607 69.3554C73.749 69.082 74.4912 68.7499 74.9209 68.6132C75.3506 68.496 75.9561 68.3789 76.2881 68.3593ZM72.7139 73.8085C71.5615 74.9609 70.2725 76.0937 69.8428 76.3085C69.4131 76.5234 68.71 76.7578 68.2803 76.8359C67.7725 76.9335 66.874 76.8359 65.6826 76.5624C64.1787 76.2304 63.7881 76.2109 63.3584 76.4062C63.0654 76.5429 62.6162 76.9726 62.3818 77.3437C62.0693 77.7929 61.9131 78.3007 61.9131 78.9062C61.9131 79.4921 62.0693 79.9999 62.3818 80.4687C62.6162 80.8398 63.124 81.3476 63.4951 81.582C63.8662 81.8359 64.667 82.1289 65.2529 82.246C65.8389 82.3632 66.9717 82.4218 67.792 82.3437C68.5928 82.2851 69.7842 82.0898 70.4287 81.9335C71.0732 81.7578 72.2451 81.3281 73.0068 80.9374C73.7881 80.5664 74.8428 79.9023 75.3311 79.4335C75.8389 78.9843 76.4834 78.2617 76.7764 77.832C77.0693 77.4023 77.499 76.5039 77.7334 75.8203C77.9482 75.1562 78.1436 74.121 78.1436 73.5351C78.1436 72.5976 78.0654 72.3828 77.5576 71.8749C77.2256 71.5429 76.7764 71.289 76.5225 71.3085C76.2881 71.3085 75.7998 71.4062 75.4482 71.5039C75.0381 71.621 74.1201 72.4023 72.7139 73.8085ZM47.2842 6.26948C47.5576 6.24995 48.3779 6.38666 49.1397 6.54291C49.8818 6.69916 50.8975 7.07026 51.3857 7.36323C51.874 7.6562 52.6357 8.24213 53.1045 8.67182C53.6123 9.14057 54.2568 10.0585 54.667 10.9179C55.3506 12.3242 55.3897 12.4609 55.3897 14.4335C55.3897 16.3671 55.3506 16.582 54.7451 17.8124C54.3936 18.5742 53.6904 19.5703 53.085 20.1757C52.5381 20.7421 51.5811 21.4453 50.9951 21.7187C50.4092 22.0117 49.3545 22.3242 48.6514 22.4414C47.792 22.5781 47.0107 22.5781 46.21 22.4609C45.5654 22.3437 44.5107 22.0117 43.8662 21.7187C43.2217 21.4062 42.2451 20.7226 41.7178 20.1953C41.1709 19.6679 40.4873 18.7499 40.1943 18.164C39.9014 17.5781 39.5498 16.4648 39.4326 15.7226C39.2568 14.6679 39.2568 14.0624 39.4326 13.0859C39.5498 12.3828 39.9014 11.3281 40.1943 10.7421C40.4873 10.1562 41.1318 9.25776 41.6201 8.76948C42.1084 8.2812 42.9873 7.61713 43.5732 7.30463C44.1592 7.01167 45.1357 6.64057 45.7217 6.52338C46.3076 6.38667 47.0107 6.26948 47.2842 6.26948ZM44.9795 9.8437C44.6865 9.99995 44.1592 10.4101 43.7881 10.7617C43.4365 11.1328 42.9482 11.7773 42.7139 12.207C42.4014 12.7929 42.3037 13.3398 42.3037 14.4531C42.3037 15.5664 42.4014 16.0937 42.7139 16.6992C42.9482 17.1289 43.5147 17.832 43.9834 18.2812C44.4522 18.7109 45.1943 19.1796 45.624 19.3359C46.0537 19.4921 46.8936 19.6093 47.4795 19.6093C48.2803 19.6093 48.8467 19.4726 49.7061 19.0234C50.4287 18.6718 51.1123 18.1445 51.5225 17.6171C51.874 17.1679 52.2647 16.4257 52.3818 15.957C52.499 15.5078 52.5576 14.6093 52.5186 13.9648C52.46 13.164 52.2647 12.4804 51.9131 11.8554C51.6201 11.3476 51.0147 10.664 50.5459 10.332C50.0967 10.0195 49.2764 9.60932 48.749 9.45307C48.2022 9.29682 47.5967 9.17963 47.3818 9.19916C47.167 9.19916 46.6592 9.29682 46.249 9.39448C45.8584 9.49213 45.292 9.68745 44.9795 9.8437ZM81.8936 17.207C82.3037 17.1874 83.1045 17.2851 83.6514 17.4023C84.2178 17.5195 85.1943 17.8906 85.8389 18.2226C86.4639 18.5742 87.4014 19.2968 87.9287 19.8632C88.4561 20.4296 89.1006 21.3476 89.3545 21.914C89.6279 22.4804 89.9209 23.4765 90.0381 24.121C90.1553 24.9023 90.1553 25.7226 90.0381 26.5624C89.9209 27.2656 89.6279 28.2812 89.3545 28.8476C89.1006 29.414 88.417 30.371 87.8506 30.9765C87.2451 31.621 86.3662 32.2851 85.6631 32.6367C85.0186 32.9492 83.9639 33.3007 83.3193 33.4179C82.4404 33.5742 81.7959 33.5742 80.7803 33.3984C80.0186 33.2617 78.9248 32.9101 78.3389 32.6171C77.7529 32.3242 76.8545 31.6992 76.3662 31.2304C75.8779 30.7421 75.2529 29.9804 74.96 29.4921C74.6865 29.0039 74.2959 28.0468 74.1201 27.3437C73.9053 26.4843 73.8271 25.664 73.9053 24.8046C73.9639 24.1015 74.1982 23.0468 74.4131 22.4609C74.6279 21.8749 75.1943 20.957 75.6436 20.4296C76.0928 19.9023 76.9522 19.1015 77.5381 18.6523C78.2803 18.0859 79.0225 17.7343 79.9014 17.5195C80.6045 17.3632 81.5029 17.207 81.8936 17.207ZM79.6084 20.7421C79.2764 20.8984 78.7295 21.3281 78.3584 21.6992C77.9873 22.0703 77.5186 22.7148 77.2842 23.1445C76.9717 23.7304 76.874 24.2773 76.874 25.3906C76.874 26.5039 76.9717 27.0312 77.2842 27.6367C77.5186 28.0664 78.085 28.7695 78.5537 29.2187C79.0225 29.6484 79.7647 30.1171 80.1943 30.2734C80.624 30.4296 81.5029 30.5468 82.1475 30.5273C82.792 30.5273 83.6514 30.371 84.042 30.1953C84.4521 30.0195 85.1162 29.5898 85.5068 29.2187C85.917 28.8671 86.4639 28.0859 86.7178 27.5195C87.0498 26.7773 87.1865 26.1132 87.1865 25.2929C87.1865 24.4726 87.0303 23.8281 86.7178 23.164C86.4639 22.6171 85.8584 21.8554 85.3701 21.4257C84.8623 20.996 84.0615 20.5468 83.5147 20.3906C82.9678 20.2343 82.2647 20.1171 81.9522 20.1367C81.6201 20.1367 81.0928 20.2148 80.7803 20.2929C80.4482 20.371 79.9209 20.5664 79.6084 20.7421ZM22.8115 68.7499C23.1631 68.7499 23.6318 68.8281 23.8467 68.9453C24.0615 69.0429 25.0186 70.2929 25.9561 71.7187C26.9131 73.1445 28.2217 75.2343 28.8857 76.3671C29.5303 77.4999 30.3701 79.121 30.7217 79.9804C31.3076 81.4257 31.3662 81.6992 31.3662 83.6914C31.3467 85.5078 31.2881 86.0156 30.8779 87.0117C30.585 87.7148 29.999 88.5937 29.3936 89.2578C28.8467 89.8437 27.9092 90.5859 27.3428 90.8984C26.7568 91.2109 25.8389 91.582 25.3115 91.7187C24.7647 91.8749 23.6709 91.9921 22.8701 91.9921C22.0693 91.9921 20.9561 91.8749 20.4287 91.7187C19.8818 91.582 19.0615 91.2499 18.5732 91.0156C18.085 90.7617 17.2256 90.1171 16.6592 89.5703C15.9951 88.9453 15.3701 88.0859 14.999 87.3046C14.4912 86.2304 14.374 85.7617 14.3154 84.1796C14.2373 82.5585 14.2959 82.1289 14.7451 80.7617C15.0381 79.9023 15.6826 78.457 16.1709 77.539C16.6592 76.621 18.0264 74.3945 19.2373 72.5781C20.4287 70.7617 21.5811 69.1601 21.7959 69.0039C22.0107 68.8671 22.4795 68.7499 22.8115 68.7499ZM18.417 79.6679C17.4014 81.6796 17.3037 82.0117 17.2451 83.3789C17.1865 84.4531 17.2646 85.0976 17.5186 85.7421C17.7139 86.2304 18.2217 86.9921 18.6514 87.4609C19.1592 87.9882 19.8232 88.4374 20.4678 88.6718C21.1123 88.9062 22.0107 89.0624 22.8115 89.0624C23.5537 89.0624 24.5303 88.9257 25.0186 88.7695C25.5068 88.6132 26.2881 88.1445 26.7568 87.7343C27.2256 87.3437 27.792 86.6601 28.0264 86.2304C28.3584 85.6054 28.4365 85.0976 28.4365 83.6914C28.4365 81.9335 28.4365 81.914 27.3232 79.6874C26.7178 78.457 25.4873 76.3085 24.5889 74.9414C23.6904 73.5742 22.9287 72.4609 22.8701 72.4609C22.8115 72.4609 22.0303 73.5742 21.1318 74.9414C20.2529 76.3085 19.0225 78.4374 18.417 79.6679Z" fill="#FFCC01"/>
</svg>
