<svg width="100" height="100" viewBox="0 0 100 100" fill="none" xmlns="http://www.w3.org/2000/svg">
<path fill-rule="evenodd" clip-rule="evenodd" d="M11.4258 0.0390625L41.5039 0L42.6758 0.546875C43.4375 0.917969 44.1797 1.48438 44.7852 2.16797C45.5078 2.98828 45.8398 3.55469 46.1719 4.6875C46.4258 5.48828 47.0117 7.55859 47.4609 9.27734C47.9297 10.9961 48.3789 12.5 48.457 12.5977C48.5547 12.7148 48.7109 12.5781 48.8281 12.2461C48.9258 11.9531 49.3164 11.3867 49.668 10.9766C50.0391 10.5859 50.6055 10.1172 51.582 9.66797V6.83594C51.5625 5.11719 51.6602 3.71094 51.8164 3.24219C51.9336 2.8125 52.3633 2.10938 52.7539 1.67969C53.1445 1.23047 53.8281 0.683594 54.2773 0.429688C55.0586 0 55.1758 0 62.5 0C69.8242 0 69.9414 0 70.7227 0.429688C71.1719 0.683594 71.8555 1.23047 72.2461 1.67969C72.6367 2.10938 73.0664 2.8125 73.1836 3.24219C73.3398 3.71094 73.4375 5.11719 73.418 9.66797L74.043 9.96094C74.3945 10.1172 75 10.6055 75.3711 11.0547C75.7617 11.4844 76.1914 12.1875 76.3086 12.6172C76.4453 13.0273 76.5625 14.3945 76.5625 17.8711L77.4609 18.3594C77.9688 18.6328 78.7305 19.2383 79.1602 19.7266C79.6094 20.2148 80.2344 21.1719 81.1523 23.1445L81.3477 54.5117L82.8125 55.1367C83.6133 55.4883 84.8438 56.1133 85.5469 56.543C86.25 56.9727 87.4219 57.8125 88.1836 58.418C88.9453 59.0039 90.0195 60.0195 90.6055 60.6641C91.1914 61.2891 92.0898 62.4219 92.6172 63.1836C93.1641 63.9453 93.9062 65.1562 94.2773 65.918C94.668 66.6797 95.1953 67.8516 95.4492 68.5547C95.7227 69.2578 96.1523 70.7812 96.4062 71.9727C96.7578 73.6133 96.875 74.6875 96.875 76.5625C96.875 78.3008 96.7578 79.5312 96.4648 80.8594C96.25 81.875 95.8594 83.3594 95.5859 84.1406C95.332 84.9023 94.8047 86.1914 94.4141 86.9727C94.0234 87.7344 93.2617 89.043 92.7148 89.8438C92.168 90.6445 90.9375 92.1094 89.9609 93.0859C88.9844 94.0625 87.5195 95.293 86.7188 95.8398C85.918 96.3867 84.6875 97.1094 83.9844 97.4609C83.2812 97.8125 82.1484 98.3203 81.4453 98.5742C80.7422 98.8477 79.2188 99.2773 78.0273 99.5312C76.3867 99.8828 75.3125 100 73.4375 100C71.6992 100 70.4688 99.8828 69.1406 99.5898C68.125 99.375 66.6406 98.9844 65.8594 98.7109C65.0977 98.457 63.8086 97.9297 63.0273 97.5391C62.2656 97.1484 61.0938 96.4648 60.4492 96.0156C59.8047 95.5859 58.7109 94.7266 58.0078 94.1406C57.3047 93.5352 56.2891 92.5 54.7852 90.6445L9.08203 90.5273L7.8125 89.9414C7.10938 89.6094 6.11328 88.9453 5.60547 88.4766C4.98047 87.9102 4.39453 87.0898 3.22266 84.6875L3.125 18.457L5.09766 11.2305C6.19141 7.26562 7.28516 3.65234 7.51953 3.22266C7.77344 2.79297 8.32031 2.10938 8.73047 1.71875C9.14062 1.32812 9.90234 0.800781 10.4492 0.527344L11.4258 0.0390625ZM10.4492 4.41406C10.2344 4.72656 9.19922 8.10547 8.14453 11.9531L6.25 18.9453V79.6875H41.2109C42.0117 80.4688 42.1875 80.8789 42.1875 81.25C42.1875 81.6016 42.0117 82.0117 41.6992 82.3242L41.2305 82.8125C7.20703 82.8125 6.25 82.832 6.25 83.1445C6.25 83.3398 6.36719 83.8477 6.48438 84.2773C6.64063 84.7461 7.10938 85.4297 7.71484 86.0352C8.30078 86.6406 9.00391 87.1094 9.47266 87.2461C10.0586 87.4219 15.5469 87.4805 31.4844 87.5H52.7344C51.5625 84.8438 51.1719 83.7891 51.0938 83.4375L50.9766 82.8125C46.3867 82.8125 46.2695 82.793 45.8008 82.3242C45.4883 82.0117 45.3125 81.6016 45.3125 81.25C45.3125 80.8789 45.4883 80.4688 45.8008 80.1758C46.2305 79.707 46.4062 79.6875 48.1836 79.6875H50.0977C50.1172 74.2383 50.2148 72.9102 50.4688 71.875C50.6445 71.0742 51.0156 69.7461 51.2891 68.9453C51.543 68.1445 51.6992 67.4219 51.6211 67.3438C51.543 67.2656 50.7227 66.9922 49.8047 66.7188C48.8867 66.4648 47.1289 66.0938 45.8984 65.8984C44.2578 65.6641 42.9883 65.6055 41.2109 65.6836C39.8633 65.7422 37.8516 65.9766 36.7188 66.2109C35.5859 66.4258 33.8672 66.8945 32.9102 67.2266C31.9531 67.5391 30.3125 68.2227 29.2969 68.7305C28.2812 69.2383 26.9141 70 26.2695 70.4492C25.625 70.8789 24.4727 71.7383 23.7305 72.3438C22.793 73.1055 22.1875 73.4375 21.8164 73.4375C21.5234 73.4375 21.0742 73.2227 20.8008 72.9492C20.5273 72.6758 20.3125 72.2266 20.3125 71.9141C20.293 71.543 20.6445 70.957 21.4062 70.0195C22.0312 69.2578 22.8906 68.0859 23.3398 67.3828C23.8086 66.6797 24.5703 65.293 25.0781 64.2969C25.5664 63.3008 26.2305 61.7188 26.5625 60.7813C26.875 59.8438 27.3242 58.2031 27.5586 57.1289C27.9102 55.5273 27.9883 54.5508 28.0078 51.6602C28.0078 48.7305 27.9297 47.793 27.5586 46.0938C27.3242 44.9609 26.875 43.2617 26.543 42.3242C26.2305 41.3867 25.5273 39.7266 24.9805 38.6133C24.4141 37.5195 23.6523 36.1328 23.2422 35.5469C22.832 34.9609 22.0117 33.8477 21.4062 33.1055C20.6445 32.168 20.293 31.5625 20.3125 31.1914C20.3125 30.8984 20.5273 30.4492 20.8008 30.1758C21.0742 29.8828 21.5039 29.6875 21.8164 29.668C22.207 29.668 22.7734 30 23.7305 30.7813C24.4727 31.3867 25.6641 32.2656 26.3672 32.7148C27.0703 33.1641 28.457 33.9453 29.4336 34.4531C30.4297 34.9414 32.0117 35.6055 32.9492 35.918C33.9062 36.25 35.5469 36.6992 36.6211 36.9336C38.2227 37.2852 39.1992 37.3633 42.0898 37.3633C45 37.3828 45.957 37.3047 47.6562 36.9336C48.7891 36.6992 50.5078 36.2305 51.4648 35.8984C52.4219 35.5859 54.1016 34.8633 55.1758 34.3359C56.25 33.7891 57.6172 33.0273 58.2031 32.6172C58.7891 32.207 59.8828 31.3867 60.6445 30.7813C61.582 30.0195 62.1875 29.668 62.5391 29.668C62.8516 29.6875 63.3008 29.9023 63.5742 30.1758C63.8477 30.4492 64.0625 30.8984 64.0625 31.1914C64.082 31.5625 63.7305 32.168 62.9688 33.1055C62.3633 33.8477 61.5039 35 61.0742 35.6445C60.625 36.2891 59.8633 37.6562 59.3555 38.6719C58.8477 39.6875 58.1641 41.3086 57.832 42.2852C57.5195 43.2422 57.0508 44.9609 56.8164 46.0938C56.4648 47.7539 56.3672 48.7891 56.3672 51.5625C56.3672 54.1211 56.4453 55.4102 56.7188 56.7383C56.9141 57.6953 57.1484 58.6914 57.2461 58.9258C57.4219 59.3555 57.4805 59.3359 59.1602 58.0469C60.1172 57.3242 61.6602 56.3281 62.6172 55.8203C63.5742 55.3125 65.1562 54.6484 66.1133 54.3359C67.0703 54.0234 68.4766 53.6328 69.2383 53.4961C70 53.3398 71.7578 53.2227 73.1445 53.2227C74.5312 53.2227 76.2305 53.2813 76.8945 53.3594L78.125 53.5156C78.125 28.125 78.0664 24.1016 77.8906 23.5352C77.7344 23.0469 77.2656 22.3633 76.6602 21.7578C76.0742 21.1719 75.3711 20.6836 74.9023 20.5469C74.3359 20.3711 70.6641 20.3125 61.0352 20.3125C48.75 20.332 47.9297 20.3125 47.5 19.9805C47.1289 19.6875 46.6992 18.3203 45.0586 12.3047C43.8867 7.98828 42.8906 4.72656 42.6562 4.39453C42.4219 4.0625 41.875 3.65234 41.4453 3.45703C40.6836 3.14453 39.5117 3.125 26.5039 3.125C13.0859 3.125 12.3633 3.14453 11.6211 3.49609C11.1719 3.71094 10.6445 4.12109 10.4492 4.41406ZM55.1758 3.59375C54.7266 4.0625 54.707 4.19922 54.6875 6.71875V9.375H70.3125C70.3125 4.17969 70.293 4.08203 69.8242 3.61328L69.3359 3.125H55.6445L55.1758 3.59375ZM52.0508 12.9688C51.6211 13.3984 51.582 13.6133 51.582 15.3125L51.5625 17.168H73.4375C73.4375 13.5938 73.3984 13.418 72.9492 12.9688L72.4609 12.4805H52.5195L52.0508 12.9688ZM28.7891 39.4531C29.1602 40.3516 29.707 41.8945 29.9805 42.8711C30.2539 43.8281 30.625 45.4102 30.8203 46.3867C31.0352 47.6172 31.1328 49.1992 31.1328 51.6602C31.1328 54.5312 31.0547 55.5664 30.6836 57.4219C30.4492 58.6523 29.9805 60.4492 29.6484 61.4258C29.3359 62.3828 28.8086 63.75 28.4961 64.4531C28.1836 65.1367 27.9492 65.7422 27.9883 65.7617C28.0078 65.8008 28.5938 65.5664 29.2969 65.2539C30 64.9414 31.4062 64.4141 32.4219 64.1016C33.4375 63.7695 34.9414 63.3789 35.7422 63.2031C36.543 63.0469 38.0469 62.793 39.0625 62.6758C40.1367 62.5391 41.9531 62.5 43.3594 62.5586C44.707 62.6172 46.543 62.793 47.4609 62.9688C48.3789 63.125 49.9219 63.4961 50.8789 63.7891C51.8555 64.0625 52.8125 64.3359 53.0273 64.375C53.3203 64.4336 53.5938 64.1797 54.1797 63.3203C54.6484 62.6172 54.8828 62.0508 54.8242 61.8164C54.7656 61.6016 54.4531 60.4102 54.1406 59.1797C53.8086 57.9297 53.4375 55.957 53.3203 54.7852C53.1836 53.5156 53.125 51.6602 53.2031 50.293C53.2617 49.0039 53.457 47.1484 53.6328 46.1914C53.8086 45.2148 54.1602 43.6719 54.4336 42.7734C54.6875 41.8555 55.2148 40.3516 55.5859 39.4531C55.957 38.5352 56.3281 37.6562 56.4062 37.5C56.5039 37.2852 56.4648 37.2461 56.25 37.3438C56.0938 37.4219 55.2148 37.7734 54.2969 38.1641C53.3789 38.5352 51.8555 39.0625 50.8789 39.3359C49.9219 39.6289 48.3398 40 47.3633 40.1758C46.1328 40.4102 44.5508 40.5078 42.0898 40.5078C39.1992 40.5078 38.1836 40.4297 36.3281 40.0586C35.0977 39.8047 33.3008 39.3359 32.3242 39.0234C31.3672 38.6914 30 38.1641 29.2969 37.8516C28.5938 37.5391 27.9883 37.2852 27.9492 37.2852C27.9102 37.3047 27.9297 37.4023 27.9883 37.5391C28.0664 37.6758 28.418 38.5352 28.7891 39.4531ZM67.5781 57.1484C66.6602 57.4219 65.2148 58.0078 64.3555 58.4375C63.4961 58.8672 62.2266 59.6484 61.5234 60.1562C60.8203 60.6641 59.6484 61.7383 58.8867 62.5195C58.125 63.3203 57.1875 64.3945 56.7969 64.9414C56.4258 65.4688 55.7617 66.6211 55.332 67.4805C54.9023 68.3398 54.3164 69.7461 54.043 70.6055C53.7695 71.4648 53.457 72.8516 53.3398 73.6719C53.2227 74.5117 53.125 75.8008 53.125 76.5625C53.125 77.3047 53.2227 78.6133 53.3398 79.4336C53.457 80.2734 53.7695 81.6602 54.043 82.5195C54.3164 83.3789 54.8828 84.7852 55.3125 85.6445C55.7422 86.5039 56.3867 87.5977 56.7188 88.0859C57.0508 88.5547 57.9883 89.6484 58.7891 90.4883C59.5898 91.3477 60.7812 92.4219 61.4258 92.9102C62.0703 93.3984 63.3008 94.1406 64.1602 94.5703C65.0195 95 66.3477 95.5664 67.0898 95.8203C67.8516 96.0938 69.2578 96.4258 70.2148 96.582C71.1914 96.7383 72.6367 96.875 73.4375 96.875C74.2383 96.875 75.7031 96.7383 76.6602 96.582C77.6367 96.4258 79.043 96.0938 79.7852 95.8203C80.5469 95.5664 81.8164 95.0391 82.6172 94.6289C83.418 94.2188 84.5312 93.5742 85.0586 93.2031C85.6055 92.8125 86.6797 91.8945 87.4609 91.1328C88.2617 90.3711 89.3164 89.1602 89.8438 88.4766C90.3516 87.7734 91.1133 86.543 91.5039 85.7422C91.9141 84.9219 92.4609 83.6523 92.7148 82.9102C92.9688 82.1484 93.3008 80.7422 93.457 79.7852C93.6328 78.8086 93.75 77.3633 93.75 76.5625C93.75 75.7422 93.6328 74.2969 93.457 73.3398C93.3008 72.3633 92.9688 70.957 92.7148 70.2148C92.4609 69.4531 91.9141 68.1836 91.5039 67.3828C91.1133 66.5625 90.5078 65.5078 90.1758 65.0391C89.8438 64.5508 88.8672 63.418 87.9883 62.5195C87.1289 61.6211 85.8984 60.5078 85.2539 60.0391C84.6094 59.5898 83.3789 58.8672 82.5195 58.4375C81.6602 58.0078 80.2539 57.4219 79.3945 57.168C78.5352 56.8945 77.1484 56.582 76.3281 56.4648C75.4883 56.3477 74.082 56.25 73.2031 56.2695C72.3047 56.2891 71.0547 56.3672 70.4102 56.4648C69.7656 56.543 68.4961 56.8555 67.5781 57.1484ZM13.457 6.25H39.6484L40.0977 6.67969C40.5078 7.07031 40.625 7.73438 41.3672 12.8906C41.8164 16.0547 42.1875 18.8086 42.1875 18.9844C42.1875 19.1797 41.9727 19.5508 41.2305 20.3125H11.9141L11.4258 19.8242C11.1523 19.5508 10.9375 19.1797 10.9375 18.9844C10.9375 18.8086 11.3086 16.0547 11.7578 12.8906C12.4805 7.77344 12.6367 7.07031 13.0273 6.67969L13.457 6.25ZM15.3516 9.92188C15.293 10.2148 15.0586 11.7773 14.8438 13.3789C14.6094 15 14.3945 16.5039 14.3359 16.7578L14.2578 17.1875H38.8672C38.7109 16.5039 38.4961 15 38.2812 13.3789C38.0469 11.7773 37.832 10.2148 37.7734 9.92188L37.6953 9.375H15.4492L15.3516 9.92188ZM73.457 62.5195C74.043 62.5195 74.3945 62.793 76.25 64.6289C77.4023 65.7617 79.0625 67.6367 79.9023 68.7695C80.7812 69.9023 81.9336 71.7578 82.5195 72.9688C83.1836 74.2969 83.75 75.7812 84.0039 76.875C84.3359 78.2422 84.3945 79.0039 84.3164 80.293C84.2578 81.3086 84.0234 82.4414 83.75 83.2227C83.4961 83.9062 83.0664 84.8828 82.793 85.3711C82.5 85.8398 81.7578 86.7773 81.1133 87.4219C80.4688 88.0664 79.4336 88.8672 78.7891 89.1992C78.1641 89.5312 77.1484 89.9805 76.5625 90.1758C75.7812 90.4297 74.9219 90.5273 73.4375 90.5273C71.9531 90.5273 71.0938 90.4297 70.3125 90.1758C69.7266 89.9805 68.7109 89.5312 68.0859 89.1992C67.4609 88.8672 66.3672 88.0078 65.6836 87.3242C64.7656 86.4062 64.1992 85.6055 63.6719 84.4922C63.2617 83.6328 62.832 82.4023 62.7148 81.7578C62.5977 81.1133 62.5 80.0977 62.5 79.5117C62.5 78.9062 62.6758 77.6758 62.8906 76.7773C63.125 75.7812 63.7305 74.2383 64.3555 72.9688C64.9414 71.7578 66.0938 69.9023 66.9727 68.7695C67.8125 67.6367 69.4727 65.7617 70.6641 64.6094C72.5391 62.7734 72.8711 62.5195 73.457 62.5195ZM69.2773 70.8789C68.75 71.6016 67.9883 72.7539 67.5781 73.457C67.168 74.1406 66.6016 75.3711 66.3086 76.1914C65.8398 77.4023 65.7617 77.9688 65.7422 79.6094C65.7227 81.4844 65.7617 81.6406 66.4453 83.0273C66.8945 83.9648 67.4805 84.7852 68.1055 85.3516C68.6133 85.8398 69.6094 86.4844 70.3125 86.8164C71.4453 87.3438 71.7773 87.4219 73.4375 87.4219C75.0977 87.4219 75.4297 87.3438 76.5625 86.8164C77.2656 86.4844 78.2617 85.8398 78.7695 85.3516C79.3945 84.7852 79.9805 83.9648 80.4297 83.0273C81.1133 81.6602 81.1523 81.4648 81.1523 79.707C81.1523 78.418 81.0352 77.5195 80.7812 76.7773C80.5859 76.1719 80.1172 75.0781 79.7461 74.3359C79.375 73.5742 78.5352 72.207 77.8711 71.2695C77.207 70.332 75.9766 68.8281 75.1562 67.9102C74.3164 66.9727 73.5547 66.2305 73.457 66.2305C73.3594 66.2305 72.5781 66.9727 71.7383 67.9102C70.8984 68.8281 69.7852 70.1758 69.2773 70.8789Z" fill="#FFCC01"/>
</svg>
