<svg width="100" height="100" viewBox="0 0 100 100" fill="none" xmlns="http://www.w3.org/2000/svg">
<g clip-path="url(#clip0_202_6624)">
<path fill-rule="evenodd" clip-rule="evenodd" d="M46.2695 3.125H66.2109L66.6992 3.61328C67.0117 3.92578 67.1875 4.31641 67.1875 4.6875C67.1875 5.03906 67.0117 5.46875 66.6992 5.76172C66.3086 6.17188 66.0352 6.25 64.0625 6.25V8.59375C64.0625 10.5469 64.1211 10.9375 64.3555 10.9375C64.5117 10.9375 64.8633 11.1523 65.1367 11.4258C65.6055 11.8945 65.625 11.9922 65.625 17.1875L72.168 17.207L72.9102 16.5039C73.3008 16.1328 73.9258 15.7617 74.2773 15.7031C74.6094 15.6445 76.2305 15.625 77.8711 15.6641C80.5273 15.7227 80.8789 15.7617 81.3867 16.1328C81.6797 16.3672 82.1094 16.7969 82.3242 17.0898C82.5781 17.4219 82.7539 18.0469 82.9102 19.9414L84.668 20.918C85.625 21.4453 87.168 22.4414 88.0859 23.125C89.0039 23.8086 90.625 25.2734 91.6992 26.4062C92.7734 27.5195 94.1992 29.2773 94.8828 30.293C95.5664 31.2891 96.5039 32.9297 96.9727 33.8867C97.4414 34.8438 98.1055 36.4844 98.457 37.5C98.7891 38.5156 99.2773 40.4492 99.5312 41.7969C99.8828 43.5938 100 44.9219 100 46.7773C100 48.4766 99.8633 50.0586 99.6094 51.5625C99.375 52.793 98.9844 54.5508 98.6914 55.4688C98.418 56.3867 97.8516 57.9297 97.4219 58.8867C97.0117 59.8438 96.25 61.3086 95.7617 62.1094C95.2734 62.9102 94.3164 64.2773 93.6523 65.1367C92.9883 65.9961 91.6602 67.4414 90.7031 68.3594C89.7461 69.2773 88.2617 70.5273 87.4023 71.1133C86.543 71.7188 85.1758 72.5781 82.9102 73.8086L82.8125 74.9805C82.7539 75.7031 82.5781 76.3281 82.3242 76.6602C82.1094 76.9531 81.6797 77.3828 81.3867 77.6172C80.918 77.9688 80.5273 78.0273 76.5625 78.125V81.25L95.4102 81.3477L96.3867 81.8555C96.9336 82.1484 97.6562 82.6172 98.0273 82.9297C98.3789 83.2422 98.9648 84.1016 99.3359 84.8633C100 86.2109 100.02 86.2695 100 88.7305C100 91.0938 99.9805 91.2305 99.043 92.1875H0.976562L0.488281 91.6992C0 91.2109 0 91.1719 0.0585938 88.5156C0.0976562 86.1523 0.175781 85.7227 0.585938 84.8633C0.859375 84.3359 1.42578 83.5352 1.85547 83.1055C2.28516 82.6758 3.08594 82.0898 4.58984 81.3477L23.4375 81.25V78.125L21.3086 78.0859C19.5312 78.0273 19.082 77.9688 18.6328 77.6367C18.3594 77.4219 17.9297 76.9922 17.6953 76.6992C17.4219 76.3281 17.2461 75.7422 17.0898 73.8086L15.2344 72.7539C14.2188 72.1875 12.6758 71.1914 11.8164 70.5469C10.957 69.9023 9.375 68.4766 8.30078 67.3633C7.22656 66.25 5.78125 64.4922 5.11719 63.4766C4.43359 62.4609 3.49609 60.8203 3.02734 59.8633C2.55859 58.9062 1.89453 57.2656 1.54297 56.25C1.21094 55.2344 0.722656 53.3008 0.46875 51.9531C0.117188 50.1172 0 48.8672 0 46.875C0 44.9609 0.136719 43.5742 0.46875 41.7969C0.722656 40.4492 1.21094 38.5156 1.54297 37.5C1.89453 36.4844 2.53906 34.8438 3.00781 33.8867C3.47656 32.9297 4.41406 31.2891 5.09766 30.2734C5.78125 29.2578 7.22656 27.5 8.30078 26.3867C9.375 25.2734 10.918 23.8672 11.7188 23.2617C12.5195 22.6562 14.0625 21.6602 17.0898 19.9414L17.1875 18.7695C17.2461 18.0469 17.4219 17.4219 17.6758 17.0898C17.8906 16.7969 18.3203 16.3672 18.6133 16.1328C19.1211 15.7617 19.4727 15.7227 22.1289 15.6641C23.7695 15.625 25.3906 15.6445 25.7422 15.7031C26.0742 15.7617 26.6992 16.1328 27.832 17.207L46.875 17.1875V14.5508C46.875 12.0117 46.8945 11.8945 47.3633 11.4258C47.6172 11.1523 47.9688 10.9375 48.1445 10.9375C48.3984 10.9375 48.4375 10.5859 48.4375 6.25H47.3633C46.4844 6.25 46.2109 6.17188 45.8008 5.76172C45.4883 5.44922 45.3125 5.05859 45.3125 4.6875C45.332 4.31641 45.5273 3.88672 45.8008 3.61328L46.2695 3.125ZM51.5625 10.9375H60.9375V6.25H51.5625V10.9375ZM50 17.1875H62.5V14.0625H50V17.1875ZM20.3125 31.25H25V18.75H20.3125V31.25ZM75 31.25H79.6875V18.75H75V31.25ZM28.125 31.25C30.0781 31.25 30.3516 31.3281 30.7617 31.7383C31.0547 32.0312 31.25 32.4414 31.25 32.8125C31.25 33.1641 31.0547 33.5742 30.7617 33.8867C30.3711 34.2773 30.0977 34.375 29.1992 34.375H28.125V59.375C30.0781 59.375 30.3516 59.4531 30.7617 59.8633C31.0547 60.1562 31.25 60.5664 31.25 60.9375C31.25 61.2891 31.0547 61.6992 30.7617 62.0117C30.3711 62.4023 30.0977 62.5 29.1992 62.5H28.125V67.1875C31.0742 67.1875 32.2852 67.2852 32.7148 67.4219C33.1836 67.5586 33.8672 68.0273 34.4727 68.6328C35.0781 69.2383 35.5469 69.9219 35.7031 70.4102C35.8203 70.8398 35.9375 71.6797 35.9375 72.3047V73.4375H64.0625C64.0625 71.6797 64.1797 70.8398 64.2969 70.4102C64.4531 69.9219 64.9219 69.2383 65.5273 68.6328C66.1133 68.0273 66.7969 67.5586 67.2852 67.4219C67.7148 67.2852 68.9258 67.1875 69.9609 67.1875H71.875V62.5C69.9219 62.5 69.6484 62.4023 69.2383 62.0117C68.9258 61.6992 68.75 61.2891 68.75 60.9375C68.75 60.5664 68.9258 60.1562 69.2188 59.8633C69.6289 59.4531 69.9023 59.375 70.7812 59.375H71.875V34.375C69.8633 34.375 69.6094 34.2773 69.2188 33.8867C68.9258 33.5742 68.75 33.1641 68.75 32.8125C68.75 32.4414 68.9258 32.0312 69.2188 31.7383C69.6289 31.3281 69.9023 31.25 70.7812 31.25H71.875V20.5078H28.125V31.25ZM10.9375 28.1055C9.84375 29.1992 8.53516 30.7812 7.77344 31.9336C7.05078 33.0078 6.11328 34.6289 5.68359 35.5469C5.25391 36.4453 4.6875 37.9102 4.39453 38.7695C4.12109 39.6289 3.75 41.0742 3.55469 41.9922C3.32031 43.1445 3.22266 44.5898 3.24219 46.875C3.24219 49.082 3.33984 50.6055 3.57422 51.7578C3.75 52.6562 4.12109 54.1211 4.39453 54.9805C4.6875 55.8398 5.25391 57.2852 5.68359 58.2031C6.11328 59.1016 7.05078 60.7422 7.77344 61.8164C8.53516 62.9492 9.84375 64.5312 10.9375 65.625C11.9531 66.6406 13.457 67.9102 14.2578 68.457C15.0586 69.0039 16.0547 69.6484 16.4453 69.8828L17.1875 70.3125V62.5C15.2344 62.5 14.9609 62.4023 14.5508 62.0117C14.2383 61.6992 14.0625 61.2891 14.0625 60.9375C14.0625 60.5664 14.2383 60.1562 14.5312 59.8633C14.9414 59.4531 15.2148 59.375 16.0938 59.375H17.1875V34.375C15.2344 34.375 14.9609 34.2773 14.5508 33.8867C14.2383 33.5742 14.0625 33.1641 14.0625 32.8125C14.0625 32.4414 14.2383 32.0312 14.5312 31.7383C14.9414 31.3281 15.2148 31.25 16.0938 31.25H17.1875C17.1875 25.1953 17.168 23.4375 17.1289 23.4375C17.0898 23.4375 16.0938 24.0625 14.9219 24.8438C13.5547 25.7422 12.1289 26.9141 10.9375 28.1055ZM82.8125 31.25C84.7656 31.25 85.0391 31.3281 85.4492 31.7383C85.7422 32.0312 85.9375 32.4414 85.9375 32.8125C85.9375 33.1641 85.7422 33.5742 85.4492 33.8867C85.0586 34.2773 84.7852 34.375 83.8867 34.375H82.8125V59.375C84.7656 59.375 85.0391 59.4531 85.4492 59.8633C85.7422 60.1562 85.9375 60.5664 85.9375 60.9375C85.9375 61.2891 85.7422 61.6992 85.4492 62.0117C85.0586 62.4023 84.7852 62.5 83.8867 62.5H82.8125V70.3125C83.9453 69.6484 84.7656 69.1211 85.3516 68.7305C85.9375 68.3398 87.0703 67.4609 87.8711 66.7773C88.6719 66.0742 89.8633 64.8633 90.5273 64.0625C91.1914 63.2422 92.1484 61.9727 92.6172 61.2305C93.1055 60.4688 93.7695 59.3359 94.1016 58.6914C94.4141 58.0469 94.9805 56.6406 95.3516 55.5664C95.7422 54.4922 96.1914 52.8125 96.4062 51.8555C96.6797 50.5469 96.7578 49.2578 96.7578 46.875C96.7578 44.6484 96.6602 43.125 96.4258 41.9922C96.25 41.0742 95.7812 39.3945 95.3906 38.2812C95 37.1484 94.3945 35.6445 94.043 34.9609C93.6914 34.2578 92.8516 32.8516 92.168 31.8359C91.4648 30.8008 90.0977 29.1406 89.0625 28.1055C88.0469 27.0898 86.4062 25.7227 85.4492 25.0586C84.4727 24.4141 83.4961 23.7695 83.2617 23.6523L82.832 23.418L82.8125 31.25ZM20.3125 59.375H25V34.375H20.3125V59.375ZM75 59.375H79.6875V34.375H75V59.375ZM20.3125 75H23.4375C23.4375 72.0508 23.5352 70.8789 23.6523 70.5078C23.7695 70.1367 24.1211 69.4922 24.4336 69.082C25 68.3594 25 68.3594 25 65.4297V62.5H20.3125V75ZM75 65.4297C75 68.3594 75 68.3594 75.5664 69.082C75.8789 69.4922 76.2305 70.1367 76.3477 70.5078C76.4648 70.8789 76.5625 72.0508 76.5625 73.0859V75H79.6875V62.5H75V65.4297ZM26.582 71.2695L26.5625 81.25H32.8125V71.2891C31.8555 70.332 31.7188 70.3125 29.6875 70.3125C27.6562 70.3125 27.5 70.332 27.0508 70.7812L26.582 71.2695ZM67.207 71.2695L67.1875 81.25H73.4375V71.2891C72.5 70.3516 72.3438 70.3125 70.3125 70.3125C68.2812 70.3125 68.125 70.3516 67.6758 70.8008L67.207 71.2695ZM35.9375 81.25H64.0625V76.5625H35.9375V81.25ZM3.88672 85.3516C3.69141 85.625 3.45703 86.0742 3.33984 86.3672C3.22266 86.6602 3.125 87.4023 3.125 87.9883V89.0625H96.875C96.7969 86.6797 96.6797 86.2109 96.3672 85.8008C96.1328 85.4883 95.7227 85.0781 95.4297 84.8633C94.9023 84.4727 94.5508 84.4727 50.2344 84.4336C14.6484 84.3945 5.42969 84.4336 4.90234 84.6289C4.53125 84.7656 4.0625 85.0977 3.88672 85.3516ZM50.293 28.5742C51.1523 28.6133 52.0312 28.8086 52.6367 29.082C53.4375 29.4141 54.9219 30.8203 60.4688 36.3867C65.7422 41.6602 67.4414 43.4766 67.793 44.2383C68.1641 45.0195 68.2617 45.5273 68.2617 46.875C68.2617 48.2227 68.1641 48.7109 67.793 49.5117C67.4414 50.2539 65.7617 52.0508 60.4688 57.3438C55.1758 62.6172 53.3984 64.2969 52.6367 64.6484C51.8555 65.0391 51.3477 65.1172 50 65.1172C48.6523 65.1172 48.1641 65.0391 47.3633 64.6484C46.6211 64.2969 44.8242 62.6172 39.5312 57.3438C34.2578 52.0508 32.5781 50.2539 32.2266 49.5117C31.8359 48.7109 31.7578 48.2031 31.7383 46.875C31.7383 45.5078 31.8359 45.0391 32.207 44.2383C32.5586 43.4961 34.2578 41.6797 39.1406 36.7383C42.6953 33.1641 45.9961 29.9609 46.4844 29.6289C46.9727 29.2969 47.7148 28.9062 48.1445 28.7695C48.5938 28.6328 49.5312 28.5352 50.293 28.5742ZM41.5625 38.7891C36.1133 44.2773 34.9805 45.5273 34.8633 46.0938C34.7852 46.4648 34.7852 47.1289 34.8633 47.5586C34.9805 48.2617 35.6445 48.9844 41.7578 55.1172C47.4023 60.7422 48.6523 61.9141 49.2188 62.0117C49.5898 62.0898 50.2539 62.0898 50.6836 62.0117C51.3867 61.8945 52.1094 61.2305 58.2422 55.1172C64.375 48.9844 65.0391 48.2617 65.1562 47.5586C65.2148 47.1289 65.2148 46.4648 65.1562 46.0938C65.0391 45.5273 63.8867 44.2773 58.4375 38.7891C54.6875 35.0195 51.582 32.0703 51.2305 31.9141C50.8789 31.7578 50.3125 31.6406 49.9609 31.6406C49.6094 31.6406 49.0625 31.7773 48.7305 31.9141C48.418 32.0703 45.1953 35.1562 41.5625 38.7891ZM50 35.9375C50.6055 35.9375 50.8789 36.1328 52.2461 37.5586C53.1055 38.457 54.2969 39.8828 54.8828 40.7422C55.4688 41.582 56.2695 42.9883 56.6797 43.8477C57.0703 44.707 57.5195 46.0156 57.6563 46.7773C57.8516 47.8516 57.8516 48.4375 57.6758 49.5117C57.5391 50.2539 57.1875 51.3672 56.8945 51.9531C56.6016 52.5391 55.9375 53.4375 55.4297 53.9453C54.9219 54.4531 53.9062 55.1563 53.1836 55.5078C51.9727 56.0938 51.6992 56.1523 50 56.1523C48.3203 56.1523 48.0273 56.0938 46.8359 55.5078C46.1133 55.1563 45.0977 54.4531 44.5898 53.9453C44.0625 53.4375 43.418 52.5391 43.1055 51.9531C42.8125 51.3672 42.4609 50.2539 42.3438 49.5117C42.168 48.4375 42.168 47.832 42.3438 46.7773C42.4805 45.9961 42.9297 44.6875 43.3789 43.75C43.8281 42.832 44.6289 41.4258 45.1953 40.6445C45.7422 39.8438 46.8945 38.457 47.7539 37.5586C49.1406 36.1328 49.3945 35.9375 50 35.9375ZM46.875 43.75C46.4453 44.4531 45.918 45.5859 45.6836 46.2891C45.4102 47.168 45.3125 47.8711 45.3711 48.6328C45.4297 49.2188 45.6445 50.0586 45.8594 50.4883C46.0742 50.918 46.5039 51.5039 46.8164 51.7969C47.1094 52.0703 47.7539 52.5 48.2422 52.7148C48.7305 52.9297 49.5117 53.1055 50 53.1055C50.4883 53.1055 51.2695 52.9297 51.7578 52.7148C52.2461 52.5 52.8906 52.0703 53.2031 51.7969C53.4961 51.5039 53.9258 50.918 54.1406 50.4883C54.3555 50.0586 54.5898 49.2578 54.6484 48.7305C54.707 48.0859 54.6094 47.3047 54.375 46.4844C54.1797 45.7617 53.5742 44.4922 52.9688 43.5547C52.4023 42.6367 51.543 41.4258 51.0547 40.8594C50.5859 40.293 50.1172 39.8438 50 39.8438C49.9023 39.8438 49.3359 40.4297 48.7305 41.1523C48.125 41.875 47.3047 43.0469 46.875 43.75Z" fill="#FFCC01"/>
</g>
<defs>
<clipPath id="clip0_202_6624">
<rect width="100" height="100" fill="white"/>
</clipPath>
</defs>
</svg>
