<svg width="32" height="32" viewBox="0 0 32 32" fill="none" xmlns="http://www.w3.org/2000/svg">
<path d="M5.33203 10.6666V22.3999C5.33203 23.8934 5.33203 24.6396 5.62268 25.21C5.87834 25.7118 6.28599 26.1206 6.78776 26.3762C7.35763 26.6666 8.10402 26.6666 9.59458 26.6666H22.4028C23.8934 26.6666 24.6387 26.6666 25.2086 26.3762C25.7103 26.1206 26.1193 25.7118 26.375 25.21C26.6654 24.6402 26.6654 23.8946 26.6654 22.404V10.6666M5.33203 10.6666H26.6654M5.33203 10.6666L7.15227 7.48111C7.59897 6.69938 7.82227 6.30859 8.13637 6.02401C8.41449 5.77201 8.74348 5.58132 9.10026 5.46487C9.50351 5.33325 9.95367 5.33325 10.8555 5.33325H21.1415C22.0433 5.33325 22.4951 5.33325 22.8983 5.46487C23.2551 5.58132 23.5826 5.77201 23.8607 6.02401C24.175 6.30882 24.3989 6.70001 24.8464 7.48299L26.6654 10.6666M15.9987 14.6666V22.6666M15.9987 22.6666L19.9987 19.9999M15.9987 22.6666L11.9987 19.9999" stroke="#5C5C5C" stroke-width="2" stroke-linecap="round" stroke-linejoin="round"/>
</svg>
