<?xml version="1.0" encoding="utf-8"?><svg viewBox="0 0 32 32" xmlns="http://www.w3.org/2000/svg" xmlns:xlink="http://www.w3.org/1999/xlink"><style>:root>svg{display:none}:root>svg:target{display:block}</style><svg viewBox="0 0 25 24" id="arrow-next" xmlns="http://www.w3.org/2000/svg"><path d="M15.208 12.72a.75.75 0 00.22-.53v-.38a.77.77 0 00-.22-.53l-5.14-5.13a.5.5 0 00-.71 0l-.71.71a.49.49 0 000 .7l4.45 4.44-4.45 4.44a.5.5 0 000 .71l.71.7a.5.5 0 00.71 0l5.14-5.13z"/></svg><svg viewBox="0 0 25 24" id="arrow-prev" xmlns="http://www.w3.org/2000/svg"><path d="M8.72 12.72a.75.75 0 01-.22-.53v-.38a.77.77 0 01.22-.53l5.14-5.13a.5.5 0 01.71 0l.71.71a.49.49 0 010 .7L10.83 12l4.45 4.44a.5.5 0 010 .71l-.71.7a.5.5 0 01-.71 0l-5.14-5.13z" fill-opacity=".5"/></svg><svg viewBox="0 0 32 32" id="btn-arrow" xmlns="http://www.w3.org/2000/svg"><path d="M9.334 9.333h13.333v13.333M9.334 22.666L22.666 9.333"/></svg><svg viewBox="0 0 20 20" id="cards" xmlns="http://www.w3.org/2000/svg"><path d="M10 2.5v15M2.5 10h15M15.833 2.5H4.167c-.92 0-1.667.746-1.667 1.667v11.666c0 .92.746 1.667 1.667 1.667h11.666c.92 0 1.667-.746 1.667-1.667V4.167c0-.92-.746-1.667-1.667-1.667z"/></svg><svg viewBox="0 0 32 32" id="cart" xmlns="http://www.w3.org/2000/svg"><path d="M20 14.667l-1.333 12M25.333 14.667L20 5.333M2.667 14.667h26.667M4.667 14.667L6.8 24.533a2.667 2.667 0 002.667 2.134h13.067a2.667 2.667 0 002.666-2.134l2.267-9.866M6 20.667h20M6.667 14.667L12 5.333M12 14.667l1.333 12"/></svg><svg viewBox="0 0 14 10" id="check" xmlns="http://www.w3.org/2000/svg"><path d="M1 5l4 4 8-8"/></svg><svg viewBox="0 0 32 32" id="remove" xmlns="http://www.w3.org/2000/svg"><path d="M24 8L8 24M8 8l16 16"/></svg><svg viewBox="0 0 20 20" id="rows" xmlns="http://www.w3.org/2000/svg"><path d="M15.833 2.5H4.167c-.92 0-1.667.746-1.667 1.667v11.666c0 .92.746 1.667 1.667 1.667h11.666c.92 0 1.667-.746 1.667-1.667V4.167c0-.92-.746-1.667-1.667-1.667zM17.5 7.5h-15M17.5 12.5h-15"/></svg></svg>