<?xml version="1.0" encoding="utf-8"?><svg viewBox="0 0 33 32" xmlns="http://www.w3.org/2000/svg" xmlns:xlink="http://www.w3.org/1999/xlink"><style>:root>svg{display:none}:root>svg:target{display:block}</style><svg viewBox="0 0 25 24" id="arrow-next" xmlns="http://www.w3.org/2000/svg"><path d="M15.208 12.72a.75.75 0 00.22-.53v-.38a.77.77 0 00-.22-.53l-5.14-5.13a.5.5 0 00-.71 0l-.71.71a.49.49 0 000 .7l4.45 4.44-4.45 4.44a.5.5 0 000 .71l.71.7a.5.5 0 00.71 0l5.14-5.13z"/></svg><svg viewBox="0 0 25 24" id="arrow-prev" xmlns="http://www.w3.org/2000/svg"><path d="M8.72 12.72a.75.75 0 01-.22-.53v-.38a.77.77 0 01.22-.53l5.14-5.13a.5.5 0 01.71 0l.71.71a.49.49 0 010 .7L10.83 12l4.45 4.44a.5.5 0 010 .71l-.71.7a.5.5 0 01-.71 0l-5.14-5.13z" fill-opacity=".5"/></svg><svg viewBox="0 0 32 32" id="btn-arrow" xmlns="http://www.w3.org/2000/svg"><path d="M9.334 9.333h13.333v13.333M9.334 22.666L22.666 9.333"/></svg><svg viewBox="0 0 20 20" id="cards" xmlns="http://www.w3.org/2000/svg"><path d="M10 2.5v15M2.5 10h15M15.833 2.5H4.167c-.92 0-1.667.746-1.667 1.667v11.666c0 .92.746 1.667 1.667 1.667h11.666c.92 0 1.667-.746 1.667-1.667V4.167c0-.92-.746-1.667-1.667-1.667z"/></svg><svg viewBox="0 0 32 32" id="cart" xmlns="http://www.w3.org/2000/svg"><path d="M20 14.667l-1.333 12M25.333 14.667L20 5.333M2.667 14.667h26.667M4.667 14.667L6.8 24.533a2.667 2.667 0 002.667 2.134h13.067a2.667 2.667 0 002.666-2.134l2.267-9.866M6 20.667h20M6.667 14.667L12 5.333M12 14.667l1.333 12"/></svg><svg viewBox="0 0 14 10" id="check" xmlns="http://www.w3.org/2000/svg"><path d="M1 5l4 4 8-8"/></svg><svg viewBox="0 0 32 32" id="down" xmlns="http://www.w3.org/2000/svg"><path d="M5.332 10.667V22.4c0 1.493 0 2.24.29 2.81.256.502.664.91 1.166 1.166.57.29 1.316.29 2.807.29h12.808c1.49 0 2.236 0 2.806-.29a2.67 2.67 0 001.166-1.166c.29-.57.29-1.315.29-2.806V10.667m-21.333 0h21.333m-21.333 0l1.82-3.186c.447-.782.67-1.172.984-1.457a2.67 2.67 0 01.964-.56c.404-.13.854-.13 1.755-.13h10.287c.901 0 1.353 0 1.756.13.357.117.685.308.963.56.314.285.538.676.985 1.459l1.82 3.184m-10.667 4v8m0 0l4-2.667m-4 2.667l-4-2.667"/></svg><svg viewBox="0 0 32 32" id="edit" xmlns="http://www.w3.org/2000/svg"><path d="M16 26.667h12M21.833 4.83a2.83 2.83 0 014.003 4.002L9.823 24.847c-.318.317-.71.549-1.14.674l-3.83 1.118a.668.668 0 01-.826-.827l1.117-3.83c.126-.43.358-.821.675-1.138L21.833 4.829z"/></svg><svg viewBox="0 0 32 32" id="exit" xmlns="http://www.w3.org/2000/svg"><path d="M16 20l4-4m0 0l-4-4m4 4H5.333M12 9.665V9.6c0-1.493 0-2.24.29-2.81.256-.503.664-.91 1.166-1.166.57-.29 1.318-.29 2.811-.29H22.4c1.494 0 2.24 0 2.81.29.502.256.91.663 1.166 1.165.29.57.29 1.316.29 2.807v12.809c0 1.49 0 2.236-.29 2.806a2.67 2.67 0 01-1.166 1.165c-.57.29-1.315.29-2.806.29h-6.141c-1.491 0-2.237 0-2.807-.29a2.668 2.668 0 01-1.165-1.166C12 24.64 12 23.893 12 22.4v-.067"/></svg><svg viewBox="0 0 32 32" id="ext" xmlns="http://www.w3.org/2000/svg"><path d="M13.335 6.667h-2.4c-1.494 0-2.24 0-2.811.29-.502.256-.91.664-1.165 1.165-.291.57-.291 1.318-.291 2.812v10.133c0 1.493 0 2.24.29 2.81.256.502.664.91 1.166 1.166.57.29 1.316.29 2.806.29h10.142c1.49 0 2.236 0 2.806-.29.502-.256.91-.665 1.166-1.166.29-.57.29-1.316.29-2.806v-2.404M26.669 12V5.333m0 0h-6.667m6.667 0l-9.333 9.334"/></svg><svg viewBox="0 0 33 32" id="file" xmlns="http://www.w3.org/2000/svg"><path d="M21.832 8L10.613 19.448a2.667 2.667 0 003.772 3.772l11.22-11.448a5.333 5.333 0 10-7.544-7.543L6.89 15.631a8 8 0 1011.314 11.313l11.172-11.401"/></svg><svg viewBox="0 0 32 32" id="menu" xmlns="http://www.w3.org/2000/svg"><path d="M4 16h24M4 24h24M4 8h24"/></svg><svg viewBox="0 0 32 32" id="message" xmlns="http://www.w3.org/2000/svg"><path d="M10.533 26.667a12 12 0 10-5.2-5.2l-2.667 7.866 7.867-2.666z"/></svg><svg viewBox="0 0 24 24" id="minus" xmlns="http://www.w3.org/2000/svg"><path d="M5 12h14"/></svg><svg viewBox="0 0 32 32" id="more" xmlns="http://www.w3.org/2000/svg"><path d="M16.001 17.333a1.333 1.333 0 100-2.666 1.333 1.333 0 000 2.666zM16.001 8a1.333 1.333 0 100-2.667 1.333 1.333 0 000 2.667zM16.001 26.667a1.333 1.333 0 100-2.667 1.333 1.333 0 000 2.667z"/></svg><svg viewBox="0 0 32 32" id="person" xmlns="http://www.w3.org/2000/svg"><path d="M24 26.667a8 8 0 00-16 0M16.001 18.667a5.333 5.333 0 100-10.667 5.333 5.333 0 000 10.667z"/><path d="M16.001 29.333c7.364 0 13.334-5.97 13.334-13.333 0-7.364-5.97-13.333-13.334-13.333C8.638 2.667 2.668 8.637 2.668 16c0 7.364 5.97 13.333 13.333 13.333z"/></svg><svg viewBox="0 0 32 32" id="plus" xmlns="http://www.w3.org/2000/svg"><path d="M6.668 16h18.667M16 6.667v18.666"/></svg><svg viewBox="0 0 32 32" id="remove" xmlns="http://www.w3.org/2000/svg"><path d="M24 8L8 24M8 8l16 16"/></svg><svg viewBox="0 0 20 20" id="rows" xmlns="http://www.w3.org/2000/svg"><path d="M15.833 2.5H4.167c-.92 0-1.667.746-1.667 1.667v11.666c0 .92.746 1.667 1.667 1.667h11.666c.92 0 1.667-.746 1.667-1.667V4.167c0-.92-.746-1.667-1.667-1.667zM17.5 7.5h-15M17.5 12.5h-15"/></svg><svg viewBox="0 0 32 32" id="search" xmlns="http://www.w3.org/2000/svg"><path d="M15 23a8 8 0 100-16 8 8 0 000 16zM25 25l-4-4"/></svg><svg viewBox="0 0 24 24" id="slider-next" xmlns="http://www.w3.org/2000/svg"><path d="M5 12h14M12 5l7 7-7 7"/></svg><svg viewBox="0 0 24 24" id="slider-prev" xmlns="http://www.w3.org/2000/svg"><path d="M19 12H5M12 5l-7 7 7 7"/></svg><svg viewBox="0 0 32 32" id="trash" xmlns="http://www.w3.org/2000/svg"><path d="M4 8h24M25.333 8v18.667c0 1.333-1.334 2.666-2.667 2.666H9.333c-1.334 0-2.667-1.333-2.667-2.666V8M10.666 8V5.333c0-1.333 1.333-2.666 2.667-2.666h5.333c1.333 0 2.667 1.333 2.667 2.666V8M13.334 14.667v8M18.666 14.667v8"/></svg></svg>