<svg width="32" height="32" viewBox="0 0 32 32" fill="none" xmlns="http://www.w3.org/2000/svg">
<path d="M26.6654 13.3333C26.6654 19.9906 19.28 26.924 16.8 29.0653C16.569 29.239 16.2878 29.333 15.9987 29.333C15.7096 29.333 15.4284 29.239 15.1974 29.0653C12.7174 26.924 5.33203 19.9906 5.33203 13.3333C5.33203 10.5043 6.45584 7.79121 8.45623 5.79082C10.4566 3.79043 13.1697 2.66663 15.9987 2.66663C18.8277 2.66663 21.5408 3.79043 23.5412 5.79082C25.5416 7.79121 26.6654 10.5043 26.6654 13.3333Z" fill="#FFCC01" stroke="#363436" stroke-width="2" stroke-linecap="round" stroke-linejoin="round"/>
<path d="M16 17.3334C18.2091 17.3334 20 15.5425 20 13.3334C20 11.1242 18.2091 9.33337 16 9.33337C13.7909 9.33337 12 11.1242 12 13.3334C12 15.5425 13.7909 17.3334 16 17.3334Z" fill="#363436"/>
</svg>
